<?xml version="1.0" encoding="UTF-8" standalone="no"?><svg xmlns="http://www.w3.org/2000/svg" xmlns:xlink="http://www.w3.org/1999/xlink" contentScriptType="application/ecmascript" contentStyleType="text/css" height="386px" preserveAspectRatio="none" style="width:455px;height:386px;" version="1.1" viewBox="0 0 455 386" width="455px" zoomAndPan="magnify"><defs><filter height="300%" id="f182joerb6vsfm" width="300%" x="-1" y="-1"><feGaussianBlur result="blurOut" stdDeviation="2.0"/><feColorMatrix in="blurOut" result="blurOut2" type="matrix" values="0 0 0 0 0 0 0 0 0 0 0 0 0 0 0 0 0 0 .4 0"/><feOffset dx="4.0" dy="4.0" in="blurOut2" result="blurOut3"/><feBlend in="SourceGraphic" in2="blurOut3" mode="normal"/></filter></defs><g><line style="stroke:#A80036;stroke-width:1.0;stroke-dasharray:5.0,5.0;" x1="32" x2="32" y1="41.6094" y2="379.4219"/><line style="stroke:#A80036;stroke-width:1.0;stroke-dasharray:5.0,5.0;" x1="118" x2="118" y1="41.6094" y2="379.4219"/><line style="stroke:#A80036;stroke-width:1.0;stroke-dasharray:5.0,5.0;" x1="237" x2="237" y1="41.6094" y2="379.4219"/><line style="stroke:#A80036;stroke-width:1.0;stroke-dasharray:5.0,5.0;" x1="375" x2="375" y1="41.6094" y2="379.4219"/><rect fill="#FEFECE" filter="url(#f182joerb6vsfm)" height="31.6094" style="stroke:#A80036;stroke-width:1.5;" width="50" x="5" y="5"/><text fill="#000000" font-family="sans-serif" font-size="14" lengthAdjust="spacing" textLength="36" x="12" y="26.5332">Client</text><rect fill="#FEFECE" filter="url(#f182joerb6vsfm)" height="31.6094" style="stroke:#A80036;stroke-width:1.5;" width="95" x="69" y="5"/><text fill="#000000" font-family="sans-serif" font-size="14" lengthAdjust="spacing" textLength="81" x="76" y="26.5332">API Endpoint</text><rect fill="#FEFECE" filter="url(#f182joerb6vsfm)" height="31.6094" style="stroke:#A80036;stroke-width:1.5;" width="114" x="178" y="5"/><text fill="#000000" font-family="sans-serif" font-size="14" lengthAdjust="spacing" textLength="100" x="185" y="26.5332">Status Endpoint</text><rect fill="#FEFECE" filter="url(#f182joerb6vsfm)" height="31.6094" style="stroke:#A80036;stroke-width:1.5;" width="135" x="306" y="5"/><text fill="#000000" font-family="sans-serif" font-size="14" lengthAdjust="spacing" textLength="121" x="313" y="26.5332">Resource Endpoint</text><polygon fill="#A80036" points="106.5,69.9609,116.5,73.9609,106.5,77.9609,110.5,73.9609" style="stroke:#A80036;stroke-width:1.0;"/><line style="stroke:#A80036;stroke-width:1.0;" x1="32" x2="112.5" y1="73.9609" y2="73.9609"/><text fill="#000000" font-family="sans-serif" font-size="13" lengthAdjust="spacing" textLength="35" x="39" y="69.1045">POST</text><polygon fill="#A80036" points="43,100.3125,33,104.3125,43,108.3125,39,104.3125" style="stroke:#A80036;stroke-width:1.0;"/><line style="stroke:#A80036;stroke-width:1.0;" x1="37" x2="117.5" y1="104.3125" y2="104.3125"/><text fill="#000000" font-family="sans-serif" font-size="13" lengthAdjust="spacing" textLength="57" x="49" y="99.4561">HTTP 202</text><polygon fill="#A80036" points="225,155.6641,235,159.6641,225,163.6641,229,159.6641" style="stroke:#A80036;stroke-width:1.0;"/><line style="stroke:#A80036;stroke-width:1.0;" x1="32" x2="231" y1="159.6641" y2="159.6641"/><text fill="#000000" font-family="sans-serif" font-size="13" lengthAdjust="spacing" textLength="26" x="39" y="154.8076">GET</text><polygon fill="#A80036" points="43,186.0156,33,190.0156,43,194.0156,39,190.0156" style="stroke:#A80036;stroke-width:1.0;"/><line style="stroke:#A80036;stroke-width:1.0;" x1="37" x2="236" y1="190.0156" y2="190.0156"/><text fill="#000000" font-family="sans-serif" font-size="13" lengthAdjust="spacing" textLength="57" x="49" y="185.1592">HTTP 202</text><polygon fill="#A80036" points="225,241.3672,235,245.3672,225,249.3672,229,245.3672" style="stroke:#A80036;stroke-width:1.0;"/><line style="stroke:#A80036;stroke-width:1.0;" x1="32" x2="231" y1="245.3672" y2="245.3672"/><text fill="#000000" font-family="sans-serif" font-size="13" lengthAdjust="spacing" textLength="26" x="39" y="240.5107">GET</text><polygon fill="#A80036" points="43,271.7188,33,275.7188,43,279.7188,39,275.7188" style="stroke:#A80036;stroke-width:1.0;"/><line style="stroke:#A80036;stroke-width:1.0;" x1="37" x2="236" y1="275.7188" y2="275.7188"/><text fill="#000000" font-family="sans-serif" font-size="13" lengthAdjust="spacing" textLength="57" x="49" y="270.8623">HTTP 202</text><polygon fill="#A80036" points="363.5,327.0703,373.5,331.0703,363.5,335.0703,367.5,331.0703" style="stroke:#A80036;stroke-width:1.0;"/><line style="stroke:#A80036;stroke-width:1.0;" x1="32" x2="369.5" y1="331.0703" y2="331.0703"/><text fill="#000000" font-family="sans-serif" font-size="13" lengthAdjust="spacing" textLength="26" x="39" y="326.2139">GET</text><polygon fill="#A80036" points="43,357.4219,33,361.4219,43,365.4219,39,361.4219" style="stroke:#A80036;stroke-width:1.0;"/><line style="stroke:#A80036;stroke-width:1.0;" x1="37" x2="374.5" y1="361.4219" y2="361.4219"/><text fill="#000000" font-family="sans-serif" font-size="13" lengthAdjust="spacing" textLength="57" x="49" y="356.5654">HTTP 202</text><!--MD5=[fc5d49d1c6303a78eeac832eedbbb072]
@startuml http_polling

hide footbox

Client -> "API Endpoint" : POST
Client <- "API Endpoint" : HTTP 202
|||
Client -> "Status Endpoint" : GET
Client <- "Status Endpoint" : HTTP 202
|||
Client -> "Status Endpoint" : GET
Client <- "Status Endpoint" : HTTP 202
|||
Client -> "Resource Endpoint" : GET
Client <- "Resource Endpoint" : HTTP 202

@enduml

PlantUML version 1.2021.5(Sun Apr 25 07:20:28 EDT 2021)
(GPL source distribution)
Java Runtime: OpenJDK Runtime Environment
JVM: OpenJDK 64-Bit Server VM
Default Encoding: Cp1252
Language: en
Country: US
--></g></svg>