<?xml version="1.0" encoding="UTF-8" standalone="no"?>
<svg
   xmlns:dc="http://purl.org/dc/elements/1.1/"
   xmlns:cc="http://creativecommons.org/ns#"
   xmlns:rdf="http://www.w3.org/1999/02/22-rdf-syntax-ns#"
   xmlns:svg="http://www.w3.org/2000/svg"
   xmlns="http://www.w3.org/2000/svg"
   xmlns:sodipodi="http://sodipodi.sourceforge.net/DTD/sodipodi-0.dtd"
   xmlns:inkscape="http://www.inkscape.org/namespaces/inkscape"
   contentScriptType="application/ecmascript"
   contentStyleType="text/css"
   height="506px"
   preserveAspectRatio="none"
   style="width:663px;height:506px;"
   version="1.1"
   viewBox="0 0 663 506"
   width="663px"
   zoomAndPan="magnify"
   id="svg152"
   sodipodi:docname="api_versioning.svg"
   inkscape:version="1.0.2-2 (e86c870879, 2021-01-15)">
  <metadata
     id="metadata156">
    <rdf:RDF>
      <cc:Work
         rdf:about="">
        <dc:format>image/svg+xml</dc:format>
        <dc:type
           rdf:resource="http://purl.org/dc/dcmitype/StillImage" />
      </cc:Work>
    </rdf:RDF>
  </metadata>
  <sodipodi:namedview
     pagecolor="#ffffff"
     bordercolor="#666666"
     borderopacity="1"
     objecttolerance="10"
     gridtolerance="10"
     guidetolerance="10"
     inkscape:pageopacity="0"
     inkscape:pageshadow="2"
     inkscape:window-width="1889"
     inkscape:window-height="1368"
     id="namedview154"
     showgrid="false"
     inkscape:zoom="1.4624506"
     inkscape:cx="331.5"
     inkscape:cy="253"
     inkscape:window-x="1913"
     inkscape:window-y="0"
     inkscape:window-maximized="0"
     inkscape:current-layer="g150" />
  <defs
     id="defs11">
    <filter
       height="300%"
       id="flft4yc5dzizh"
       width="300%"
       x="-1"
       y="-1">
      <feGaussianBlur
         result="blurOut"
         stdDeviation="2.0"
         id="feGaussianBlur2" />
      <feColorMatrix
         in="blurOut"
         result="blurOut2"
         type="matrix"
         values="0 0 0 0 0 0 0 0 0 0 0 0 0 0 0 0 0 0 .4 0"
         id="feColorMatrix4" />
      <feOffset
         dx="4.0"
         dy="4.0"
         in="blurOut2"
         result="blurOut3"
         id="feOffset6" />
      <feBlend
         in="SourceGraphic"
         in2="blurOut3"
         mode="normal"
         id="feBlend8" />
    </filter>
  </defs>
  <g
     id="g150">
    <!--MD5=[7058f338f099d236033fc5161613b206]
cluster Api-->
    <polygon
       fill="#FFFFFF"
       filter="url(#flft4yc5dzizh)"
       points="16,108,44,108,51,131.6094,497,131.6094,497,499,16,499,16,108"
       style="stroke:#000000;stroke-width:1.5;"
       id="polygon13" />
    <line
       style="stroke:#000000;stroke-width:1.5;"
       x1="16"
       x2="51"
       y1="131.6094"
       y2="131.6094"
       id="line15" />
    <text
       fill="#000000"
       font-family="sans-serif"
       font-size="14"
       font-weight="bold"
       lengthAdjust="spacing"
       textLength="22"
       x="20"
       y="124.5332"
       id="text17">Api</text>
    <!--MD5=[9a32cd3984fdd08205638aa42968fc5c]
cluster v1-->
    <polygon
       fill="#FFFFFF"
       filter="url(#flft4yc5dzizh)"
       points="344,180.5,367,180.5,374,204.1094,473,204.1094,473,475,344,475,344,180.5"
       style="stroke:#000000;stroke-width:1.5;"
       id="polygon19" />
    <line
       style="stroke:#000000;stroke-width:1.5;"
       x1="344"
       x2="374"
       y1="204.1094"
       y2="204.1094"
       id="line21" />
    <text
       fill="#000000"
       font-family="sans-serif"
       font-size="14"
       font-weight="bold"
       lengthAdjust="spacing"
       textLength="17"
       x="348"
       y="197.0332"
       id="text23">v1</text>
    <!--MD5=[8f568eda7f993736a9f8e47c0c4df829]
cluster v2-->
    <polygon
       fill="#FFFFFF"
       filter="url(#flft4yc5dzizh)"
       points="40,152,63,152,70,175.6094,198,175.6094,198,475,40,475,40,152"
       style="stroke:#000000;stroke-width:1.5;"
       id="polygon25" />
    <line
       style="stroke:#000000;stroke-width:1.5;"
       x1="40"
       x2="70"
       y1="175.6094"
       y2="175.6094"
       id="line27" />
    <text
       fill="#000000"
       font-family="sans-serif"
       font-size="14"
       font-weight="bold"
       lengthAdjust="spacing"
       textLength="17"
       x="44"
       y="168.5332"
       id="text29">v2</text>
    <!--MD5=[d01ad76c199fe17d587d1aee33ac10b8]
class CommonLogic-->
    <rect
       codeLine="9"
       fill="#FEFECE"
       filter="url(#flft4yc5dzizh)"
       height="32"
       id="CommonLogic"
       style="stroke:#A80036;stroke-width:1.5;"
       width="114"
       x="214"
       y="409" />
    <ellipse
       cx="229"
       cy="425"
       fill="#A9DCDF"
       rx="11"
       ry="11"
       style="stroke:#A80036;stroke-width:1.0;"
       id="ellipse32" />
    <path
       d="M231.1875,426.7656 L227.0469,426.7656 L226.625,427.7969 L227.0469,427.7969 Q227.6563,427.7969 227.9219,428.0313 Q228.1875,428.2656 228.1875,428.6563 Q228.1875,429.0313 227.9219,429.2656 Q227.6563,429.5 227.0469,429.5 L224.75,429.5 Q224.1406,429.5 223.8906,429.2656 Q223.625,429.0313 223.625,428.6406 Q223.625,428.2656 223.9063,428.0313 Q224.1719,427.7813 224.7969,427.7969 L227.4688,421.1406 L226.3594,421.1406 Q225.75,421.1406 225.4844,420.9063 Q225.2188,420.6719 225.2188,420.2813 Q225.2188,419.9063 225.4844,419.6719 Q225.75,419.4375 226.3594,419.4375 L230.0313,419.4375 L233.4219,427.7969 Q234.0156,427.7969 234.2031,427.9375 Q234.5938,428.2031 234.5938,428.6563 Q234.5938,429.0313 234.3281,429.2656 Q234.0781,429.5 233.4688,429.5 L231.1719,429.5 Q230.5625,429.5 230.2969,429.2656 Q230.0313,429.0313 230.0313,428.6406 Q230.0313,428.2656 230.2969,428.0313 Q230.5625,427.7969 231.1719,427.7969 L231.5938,427.7969 L231.1875,426.7656 Z M230.4688,425.0625 L229.1094,421.6875 L227.7344,425.0625 L230.4688,425.0625 Z "
       fill="#000000"
       id="path34" />
    <text
       fill="#000000"
       font-family="sans-serif"
       font-size="12"
       font-style="italic"
       lengthAdjust="spacing"
       textLength="82"
       x="243"
       y="429.9102"
       id="text36">CommonLogic</text>
    <!--MD5=[9319f6a29b119d01e1f5b6d1a6e1c87d]
class IV1Logic-->
    <rect
       codeLine="12"
       fill="#FEFECE"
       filter="url(#flft4yc5dzizh)"
       height="67.6719"
       id="IV1Logic"
       style="stroke:#A80036;stroke-width:1.5;"
       width="81"
       x="363.5"
       y="391" />
    <ellipse
       cx="378.5"
       cy="407"
       fill="#B4A7E5"
       rx="11"
       ry="11"
       style="stroke:#A80036;stroke-width:1.0;"
       id="ellipse39" />
    <path
       d="M379.4531,403.6406 L379.4531,410.2969 L381.1719,410.2969 Q381.7813,410.2969 382.0469,410.5313 Q382.3125,410.7656 382.3125,411.1563 Q382.3125,411.5313 382.0469,411.7656 Q381.7813,412 381.1719,412 L376.0313,412 Q375.4219,412 375.1563,411.7656 Q374.8906,411.5313 374.8906,411.1406 Q374.8906,410.7656 375.1563,410.5313 Q375.4219,410.2969 376.0313,410.2969 L377.75,410.2969 L377.75,403.6406 L376.0313,403.6406 Q375.4219,403.6406 375.1563,403.4063 Q374.8906,403.1719 374.8906,402.7813 Q374.8906,402.4063 375.1563,402.1719 Q375.4219,401.9375 376.0313,401.9375 L381.1719,401.9375 Q381.7813,401.9375 382.0469,402.1719 Q382.3125,402.4063 382.3125,402.7813 Q382.3125,403.1719 382.0469,403.4063 Q381.7813,403.6406 381.1719,403.6406 L379.4531,403.6406 Z "
       fill="#000000"
       id="path41" />
    <text
       fill="#000000"
       font-family="sans-serif"
       font-size="12"
       font-style="italic"
       lengthAdjust="spacing"
       textLength="49"
       x="392.5"
       y="411.9102"
       id="text43">IV1Logic</text>
    <line
       style="stroke:#A80036;stroke-width:1.5;"
       x1="364.5"
       x2="443.5"
       y1="423"
       y2="423"
       id="line45" />
    <text
       fill="#000000"
       font-family="sans-serif"
       font-size="11"
       lengthAdjust="spacing"
       textLength="45"
       x="369.5"
       y="438.4189"
       id="text47">actionA()</text>
    <text
       fill="#000000"
       font-family="sans-serif"
       font-size="11"
       lengthAdjust="spacing"
       textLength="44"
       x="369.5"
       y="452.2549"
       id="text49">actionB()</text>
    <!--MD5=[79864ccd20def053537427cdd976eaa6]
class V1Logic-->
    <rect
       codeLine="16"
       fill="#FEFECE"
       filter="url(#flft4yc5dzizh)"
       height="67.6719"
       id="V1Logic"
       style="stroke:#A80036;stroke-width:1.5;"
       width="76"
       x="360"
       y="216.5" />
    <ellipse
       cx="375"
       cy="232.5"
       fill="#ADD1B2"
       rx="11"
       ry="11"
       style="stroke:#A80036;stroke-width:1.0;"
       id="ellipse52" />
    <path
       d="M377.7656,228.375 Q377.9219,228.1563 378.1094,228.0469 Q378.2969,227.9375 378.5156,227.9375 Q378.8906,227.9375 379.125,228.2031 Q379.3594,228.4531 379.3594,229.0625 L379.3594,230.5156 Q379.3594,231.125 379.125,231.3906 Q378.8906,231.6563 378.5156,231.6563 Q378.1719,231.6563 377.9688,231.4531 Q377.7656,231.2656 377.6563,230.75 Q377.6094,230.3906 377.4219,230.2031 Q377.0938,229.8281 376.4844,229.6094 Q375.875,229.3906 375.25,229.3906 Q374.4844,229.3906 373.8438,229.7188 Q373.2188,230.0469 372.7188,230.7969 Q372.2344,231.5469 372.2344,232.5781 L372.2344,233.6719 Q372.2344,234.9063 373.125,235.7344 Q374.0156,236.5469 375.6094,236.5469 Q376.5469,236.5469 377.2031,236.2969 Q377.5938,236.1406 378.0156,235.7031 Q378.2813,235.4375 378.4219,235.3594 Q378.5781,235.2813 378.7813,235.2813 Q379.1094,235.2813 379.3594,235.5469 Q379.625,235.7969 379.625,236.1406 Q379.625,236.4844 379.2813,236.8906 Q378.7813,237.4688 377.9844,237.7969 Q376.9063,238.25 375.6094,238.25 Q374.0938,238.25 372.8906,237.625 Q371.9063,237.125 371.2188,236.0625 Q370.5313,234.9844 370.5313,233.7031 L370.5313,232.5469 Q370.5313,231.2188 371.1406,230.0781 Q371.7656,228.9219 372.8594,228.3125 Q373.9531,227.6875 375.1875,227.6875 Q375.9219,227.6875 376.5625,227.8594 Q377.2188,228.0156 377.7656,228.375 Z "
       fill="#000000"
       id="path54" />
    <text
       fill="#000000"
       font-family="sans-serif"
       font-size="12"
       lengthAdjust="spacing"
       textLength="44"
       x="389"
       y="237.4102"
       id="text56">V1Logic</text>
    <line
       style="stroke:#A80036;stroke-width:1.5;"
       x1="361"
       x2="435"
       y1="248.5"
       y2="248.5"
       id="line58" />
    <ellipse
       cx="371"
       cy="259.5"
       fill="#84BE84"
       rx="3"
       ry="3"
       style="stroke:#038048;stroke-width:1.0;"
       id="ellipse60" />
    <text
       fill="#000000"
       font-family="sans-serif"
       font-size="11"
       lengthAdjust="spacing"
       textLength="45"
       x="380"
       y="263.9189"
       id="text62">actionA()</text>
    <ellipse
       cx="371"
       cy="273.3359"
       fill="#84BE84"
       rx="3"
       ry="3"
       style="stroke:#038048;stroke-width:1.0;"
       id="ellipse64" />
    <text
       fill="#000000"
       font-family="sans-serif"
       font-size="11"
       lengthAdjust="spacing"
       textLength="44"
       x="380"
       y="277.7549"
       id="text66">actionB()</text>
    <!--MD5=[210e10787dec2c59424631fb88a96eb2]
class IV2Logic-->
    <rect
       codeLine="23"
       fill="#FEFECE"
       filter="url(#flft4yc5dzizh)"
       height="67.6719"
       id="IV2Logic"
       style="stroke:#A80036;stroke-width:1.5;"
       width="81"
       x="78.5"
       y="391" />
    <ellipse
       cx="93.5"
       cy="407"
       fill="#B4A7E5"
       rx="11"
       ry="11"
       style="stroke:#A80036;stroke-width:1.0;"
       id="ellipse69" />
    <path
       d="M94.4531,403.6406 L94.4531,410.2969 L96.1719,410.2969 Q96.7813,410.2969 97.0469,410.5313 Q97.3125,410.7656 97.3125,411.1563 Q97.3125,411.5313 97.0469,411.7656 Q96.7813,412 96.1719,412 L91.0313,412 Q90.4219,412 90.1563,411.7656 Q89.8906,411.5313 89.8906,411.1406 Q89.8906,410.7656 90.1563,410.5313 Q90.4219,410.2969 91.0313,410.2969 L92.75,410.2969 L92.75,403.6406 L91.0313,403.6406 Q90.4219,403.6406 90.1563,403.4063 Q89.8906,403.1719 89.8906,402.7813 Q89.8906,402.4063 90.1563,402.1719 Q90.4219,401.9375 91.0313,401.9375 L96.1719,401.9375 Q96.7813,401.9375 97.0469,402.1719 Q97.3125,402.4063 97.3125,402.7813 Q97.3125,403.1719 97.0469,403.4063 Q96.7813,403.6406 96.1719,403.6406 L94.4531,403.6406 Z "
       fill="#000000"
       id="path71" />
    <text
       fill="#000000"
       font-family="sans-serif"
       font-size="12"
       font-style="italic"
       lengthAdjust="spacing"
       textLength="49"
       x="107.5"
       y="411.9102"
       id="text73">IV2Logic</text>
    <line
       style="stroke:#A80036;stroke-width:1.5;"
       x1="79.5"
       x2="158.5"
       y1="423"
       y2="423"
       id="line75" />
    <text
       fill="#000000"
       font-family="sans-serif"
       font-size="11"
       lengthAdjust="spacing"
       textLength="44"
       x="84.5"
       y="438.4189"
       id="text77">actionC()</text>
    <text
       fill="#000000"
       font-family="sans-serif"
       font-size="11"
       lengthAdjust="spacing"
       textLength="44"
       x="84.5"
       y="452.2549"
       id="text79">actionD()</text>
    <!--MD5=[d364b3ef4f993ae241c602c8bf7cd1a3]
class V2Logic-->
    <rect
       codeLine="27"
       fill="#FEFECE"
       filter="url(#flft4yc5dzizh)"
       height="125.1797"
       id="V2Logic"
       style="stroke:#A80036;stroke-width:1.5;"
       width="126"
       x="56"
       y="188" />
    <ellipse
       cx="93.5"
       cy="204"
       fill="#ADD1B2"
       rx="11"
       ry="11"
       style="stroke:#A80036;stroke-width:1.0;"
       id="ellipse82" />
    <path
       d="M96.2656,199.875 Q96.4219,199.6563 96.6094,199.5469 Q96.7969,199.4375 97.0156,199.4375 Q97.3906,199.4375 97.625,199.7031 Q97.8594,199.9531 97.8594,200.5625 L97.8594,202.0156 Q97.8594,202.625 97.625,202.8906 Q97.3906,203.1563 97.0156,203.1563 Q96.6719,203.1563 96.4688,202.9531 Q96.2656,202.7656 96.1563,202.25 Q96.1094,201.8906 95.9219,201.7031 Q95.5938,201.3281 94.9844,201.1094 Q94.375,200.8906 93.75,200.8906 Q92.9844,200.8906 92.3438,201.2188 Q91.7188,201.5469 91.2188,202.2969 Q90.7344,203.0469 90.7344,204.0781 L90.7344,205.1719 Q90.7344,206.4063 91.625,207.2344 Q92.5156,208.0469 94.1094,208.0469 Q95.0469,208.0469 95.7031,207.7969 Q96.0938,207.6406 96.5156,207.2031 Q96.7813,206.9375 96.9219,206.8594 Q97.0781,206.7813 97.2813,206.7813 Q97.6094,206.7813 97.8594,207.0469 Q98.125,207.2969 98.125,207.6406 Q98.125,207.9844 97.7813,208.3906 Q97.2813,208.9688 96.4844,209.2969 Q95.4063,209.75 94.1094,209.75 Q92.5938,209.75 91.3906,209.125 Q90.4063,208.625 89.7188,207.5625 Q89.0313,206.4844 89.0313,205.2031 L89.0313,204.0469 Q89.0313,202.7188 89.6406,201.5781 Q90.2656,200.4219 91.3594,199.8125 Q92.4531,199.1875 93.6875,199.1875 Q94.4219,199.1875 95.0625,199.3594 Q95.7188,199.5156 96.2656,199.875 Z "
       fill="#000000"
       id="path84" />
    <text
       fill="#000000"
       font-family="sans-serif"
       font-size="12"
       lengthAdjust="spacing"
       textLength="44"
       x="112.5"
       y="208.9102"
       id="text86">V2Logic</text>
    <line
       style="stroke:#A80036;stroke-width:1.5;"
       x1="57"
       x2="181"
       y1="220"
       y2="220"
       id="line88" />
    <rect
       fill="none"
       height="6"
       style="stroke:#C82930;stroke-width:1.0;"
       width="6"
       x="64"
       y="228"
       id="rect90" />
    <text
       fill="#000000"
       font-family="sans-serif"
       font-size="11"
       lengthAdjust="spacing"
       textLength="100"
       x="76"
       y="235.4189"
       id="text92">oldV1Logic: V1Logic</text>
    <line
       style="stroke:#A80036;stroke-width:1.0;stroke-dasharray:1.0,2.0;"
       x1="57"
       x2="181"
       y1="241.8359"
       y2="241.8359"
       id="line94" />
    <ellipse
       cx="67"
       cy="252.8359"
       fill="#84BE84"
       rx="3"
       ry="3"
       style="stroke:#038048;stroke-width:1.0;"
       id="ellipse96" />
    <text
       fill="#000000"
       font-family="sans-serif"
       font-size="11"
       lengthAdjust="spacing"
       textLength="44"
       x="76"
       y="257.2549"
       id="text98">actionC()</text>
    <ellipse
       cx="67"
       cy="266.6719"
       fill="#84BE84"
       rx="3"
       ry="3"
       style="stroke:#038048;stroke-width:1.0;"
       id="ellipse100" />
    <text
       fill="#000000"
       font-family="sans-serif"
       font-size="11"
       lengthAdjust="spacing"
       textLength="44"
       x="76"
       y="271.0908"
       id="text102">actionD()</text>
    <line
       style="stroke:#A80036;stroke-width:1.5;"
       x1="57"
       x2="181"
       y1="277.5078"
       y2="277.5078"
       id="line104" />
    <ellipse
       cx="67"
       cy="288.5078"
       fill="#84BE84"
       rx="3"
       ry="3"
       style="stroke:#038048;stroke-width:1.0;"
       id="ellipse106" />
    <text
       fill="#000000"
       font-family="sans-serif"
       font-size="11"
       lengthAdjust="spacing"
       textLength="45"
       x="76"
       y="292.9268"
       id="text108">actionA()</text>
    <ellipse
       cx="67"
       cy="302.3438"
       fill="#84BE84"
       rx="3"
       ry="3"
       style="stroke:#038048;stroke-width:1.0;"
       id="ellipse110" />
    <text
       fill="#000000"
       font-family="sans-serif"
       font-size="11"
       lengthAdjust="spacing"
       textLength="44"
       x="76"
       y="306.7627"
       id="text112">actionB()</text>
    <!--MD5=[0ba5ee7700168656dc1b457c6fe9fdac]
entity Client-->
    <ellipse
       cx="119"
       cy="14"
       fill="#FEFECE"
       filter="url(#flft4yc5dzizh)"
       rx="8"
       ry="8"
       style="stroke:#A80036;stroke-width:1.5;"
       id="ellipse114" />
    <text
       fill="#000000"
       font-family="sans-serif"
       font-size="14"
       lengthAdjust="spacing"
       textLength="36"
       x="101"
       y="45.5332"
       id="text116">Client</text>
    <path
       d="m 201.69459,213.05946 v 17.3516 l -19.54054,1.19072 19.54054,6.80928 v 17.3515 h 141 v -32.7031 l -10,-10 h -131"
       fill="#fbfb77"
       filter="url(#flft4yc5dzizh)"
       style="stroke:#a80036;stroke-width:1"
       id="path118"
       sodipodi:nodetypes="ccccccccc" />
    <path
       d="m 332.69459,213.05946 v 10 h 10 l -10,-10"
       fill="#fbfb77"
       style="stroke:#a80036;stroke-width:1"
       id="path120" />
    <text
       fill="#000000"
       font-family="sans-serif"
       font-size="13"
       lengthAdjust="spacing"
       textLength="120"
       x="519.5"
       y="242.4951"
       id="text122"
       transform="translate(-311.80541,-10.94054)">oldV1Logic.actionA()</text>
    <text
       fill="#000000"
       font-family="sans-serif"
       font-size="13px"
       lengthAdjust="spacing"
       textLength="120"
       x="519.5"
       y="258.84671"
       id="text124"
       transform="translate(-311.80541,-10.94054)">oldV1Logic.actionB()</text>
    <!--MD5=[46ec2ae8cc185fc3cdac2ec3016ae54f]
link V1Logic to CommonLogic-->
    <path
       codeLine="41"
       d="M384.38,284.94 C374.26,307.62 359.11,337.62 341,361 C327.91,377.9 309.94,393.96 295.49,405.64 "
       fill="none"
       id="V1Logic-to-CommonLogic"
       style="stroke:#A80036;stroke-width:1.0;" />
    <polygon
       fill="#A80036"
       points="291.51,408.82,301.0377,406.3255,295.4157,405.6983,296.0429,400.0763,291.51,408.82"
       style="stroke:#A80036;stroke-width:1.0;"
       id="polygon127" />
    <!--MD5=[d2ebf525126bdd4d1bb58817c8976931]
link V1Logic to IV1Logic-->
    <path
       codeLine="42"
       d="M399.16,284.76 C400.16,313.64 401.62,355.45 402.67,385.71 "
       fill="none"
       id="V1Logic-to-IV1Logic"
       style="stroke:#A80036;stroke-width:1.0;stroke-dasharray:7.0,7.0;" />
    <polygon
       fill="#A80036"
       points="402.85,390.84,406.5132,381.6977,402.6644,385.8434,398.5187,381.9947,402.85,390.84"
       style="stroke:#A80036;stroke-width:1.0;"
       id="polygon130" />
    <text
       fill="#000000"
       font-family="sans-serif"
       font-size="13"
       lengthAdjust="spacing"
       textLength="60"
       x="402"
       y="357.4951"
       id="text132">implement</text>
    <!--MD5=[934749e7920dfd25951293b4d27c9914]
link V2Logic to CommonLogic-->
    <path
       codeLine="43"
       d="M173.45,313.29 C201.83,345.51 234.6,382.69 254.01,404.72 "
       fill="none"
       id="V2Logic-to-CommonLogic"
       style="stroke:#A80036;stroke-width:1.0;" />
    <polygon
       fill="#A80036"
       points="257.48,408.66,254.5461,399.2583,254.1804,404.9033,248.5354,404.5376,257.48,408.66"
       style="stroke:#A80036;stroke-width:1.0;"
       id="polygon135" />
    <!--MD5=[b31a53134626980b4285f93ba38cf7b5]
link V2Logic to IV2Logic-->
    <path
       codeLine="44"
       d="M70.99,313.14 C64.25,328.52 61.31,345.16 67,361 C70.24,370.01 75.38,378.65 81.21,386.48 "
       fill="none"
       id="V2Logic-to-IV2Logic"
       style="stroke:#A80036;stroke-width:1.0;stroke-dasharray:7.0,7.0;" />
    <polygon
       fill="#A80036"
       points="84.5,390.75,82.1631,381.1824,81.4432,386.7933,75.8323,386.0733,84.5,390.75"
       style="stroke:#A80036;stroke-width:1.0;"
       id="polygon138" />
    <text
       fill="#000000"
       font-family="sans-serif"
       font-size="13"
       lengthAdjust="spacing"
       textLength="60"
       x="68"
       y="357.4951"
       id="text140">implement</text>
    <!--MD5=[24dde7be4b2f2c91b425389241901640]
link V2Logic to IV1Logic-->
    <path
       codeLine="45"
       d="M182.14,285.35 C230.34,311.82 298.06,350.35 358.99,390.38 "
       fill="none"
       id="V2Logic-to-IV1Logic"
       style="stroke:#A80036;stroke-width:1.0;stroke-dasharray:7.0,7.0;" />
    <polygon
       fill="#A80036"
       points="363.37,393.26,358.0674,384.9604,359.1988,390.503,353.6562,391.6344,363.37,393.26"
       style="stroke:#A80036;stroke-width:1.0;"
       id="polygon143" />
    <text
       fill="#000000"
       font-family="sans-serif"
       font-size="13"
       lengthAdjust="spacing"
       textLength="60"
       x="309"
       y="357.4951"
       id="text145">implement</text>
    <!--MD5=[5caab316c215afe41a18d98ebcd0d2a4]
link Client to V2Logic-->
    <path
       codeLine="47"
       d="M119,23.07 C119,48.72 119,130.08 119,187.91 "
       fill="none"
       id="Client-V2Logic"
       style="stroke:#A80036;stroke-width:1.0;" />
    <text
       fill="#000000"
       font-family="sans-serif"
       font-size="13"
       lengthAdjust="spacing"
       textLength="45"
       x="120"
       y="88.4951"
       id="text148">call API</text>
    <!--MD5=[ccde9edc7b4af4a5dcd322ec77762854]
link V2Logic to V2Logic$$$RIGHT-->
    <!--MD5=[4d8ae50aac5a0080f1d3abb101948d63]
@startuml api_versioning

' skinparam linetype ortho

hide empty members

circle Client

package Api {
    abstract class CommonLogic

    package v1 {
        interface IV1Logic {
            actionA()
            actionB()
        }
        class V1Logic{
            +actionA()
            +actionB()
        }
    }

    package v2 {
        interface IV2Logic {
            actionC()
            actionD()
        }
        class V2Logic {
            -oldV1Logic: V1Logic
            ..
            +actionC()
            +actionD()
            ___
            +actionA()
            +actionB()
        }
    }


}

V1Logic - -> CommonLogic
V1Logic ..> IV1Logic : implement
V2Logic - -> CommonLogic
V2Logic ..> IV2Logic : implement
V2Logic ..> IV1Logic : implement

Client - - V2Logic : call API

note right of V2Logic::oldV1Logic
oldV1Logic.actionA()
oldV1Logic.actionB()
endnote

' note as N1
' UML arrow specification
' <img:legends.svg>
' endnote

@enduml

@startuml api_versioning


hide empty members

circle Client

package Api {
    abstract class CommonLogic

    package v1 {
        interface IV1Logic {
            actionA()
            actionB()
        }
        class V1Logic{
            +actionA()
            +actionB()
        }
    }

    package v2 {
        interface IV2Logic {
            actionC()
            actionD()
        }
        class V2Logic {
            -oldV1Logic: V1Logic
            ..
            +actionC()
            +actionD()
            ___
            +actionA()
            +actionB()
        }
    }


}

V1Logic - -> CommonLogic
V1Logic ..> IV1Logic : implement
V2Logic - -> CommonLogic
V2Logic ..> IV2Logic : implement
V2Logic ..> IV1Logic : implement

Client - - V2Logic : call API

note right of V2Logic::oldV1Logic
oldV1Logic.actionA()
oldV1Logic.actionB()
endnote


@enduml

PlantUML version 1.2021.5(Sun Apr 25 07:20:28 EDT 2021)
(GPL source distribution)
Java Runtime: OpenJDK Runtime Environment
JVM: OpenJDK 64-Bit Server VM
Default Encoding: Cp1252
Language: en
Country: US
-->
  </g>
</svg>
