<?xml version="1.0" encoding="UTF-8" standalone="no"?>
<svg
   xmlns:dc="http://purl.org/dc/elements/1.1/"
   xmlns:cc="http://creativecommons.org/ns#"
   xmlns:rdf="http://www.w3.org/1999/02/22-rdf-syntax-ns#"
   xmlns:svg="http://www.w3.org/2000/svg"
   xmlns="http://www.w3.org/2000/svg"
   xmlns:sodipodi="http://sodipodi.sourceforge.net/DTD/sodipodi-0.dtd"
   xmlns:inkscape="http://www.inkscape.org/namespaces/inkscape"
   contentScriptType="application/ecmascript"
   contentStyleType="text/css"
   height="453"
   preserveAspectRatio="none"
   version="1.1"
   viewBox="0 0 523 453"
   width="523"
   zoomAndPan="magnify"
   id="svg152"
   sodipodi:docname="api_versioning.svg"
   inkscape:version="1.0.2-2 (e86c870879, 2021-01-15)">
  <metadata
     id="metadata156">
    <rdf:RDF>
      <cc:Work
         rdf:about="">
        <dc:format>image/svg+xml</dc:format>
        <dc:type
           rdf:resource="http://purl.org/dc/dcmitype/StillImage" />
        <dc:title></dc:title>
      </cc:Work>
    </rdf:RDF>
  </metadata>
  <sodipodi:namedview
     pagecolor="#ffffff"
     bordercolor="#666666"
     borderopacity="1"
     objecttolerance="10"
     gridtolerance="10"
     guidetolerance="10"
     inkscape:pageopacity="0"
     inkscape:pageshadow="2"
     inkscape:window-width="2560"
     inkscape:window-height="1377"
     id="namedview154"
     showgrid="false"
     inkscape:zoom="1.4624506"
     inkscape:cx="219.22559"
     inkscape:cy="175.54672"
     inkscape:window-x="1912"
     inkscape:window-y="-8"
     inkscape:window-maximized="1"
     inkscape:current-layer="g150"
     inkscape:document-rotation="0"
     fit-margin-top="-350"
     fit-margin-left="-460"
     fit-margin-right="-460"
     fit-margin-bottom="-370" />
  <defs
     id="defs11">
    <filter
       height="3"
       id="fnpv56r9r3p99"
       width="3"
       x="-1"
       y="-1">
      <feGaussianBlur
         result="blurOut"
         stdDeviation="2.0"
         id="feGaussianBlur2" />
      <feColorMatrix
         in="blurOut"
         result="blurOut2"
         type="matrix"
         values="0 0 0 0 0 0 0 0 0 0 0 0 0 0 0 0 0 0 .4 0"
         id="feColorMatrix4" />
      <feOffset
         dx="4.0"
         dy="4.0"
         in="blurOut2"
         result="blurOut3"
         id="feOffset6" />
      <feBlend
         in="SourceGraphic"
         in2="blurOut3"
         mode="normal"
         id="feBlend8" />
    </filter>
  </defs>
  <g
     id="g150"
     transform="translate(5,-31)">
    <!--MD5=[7058f338f099d236033fc5161613b206]
cluster Api-->
    <polygon
       fill="#ffffff"
       filter="url(#fnpv56r9r3p99)"
       points="16,499 16,108 44,108 51,131.6094 497,131.6094 497,499 "
       style="stroke:#000000;stroke-width:1.5"
       id="polygon13"
       transform="translate(0,-36)" />
    <line
       style="stroke:#000000;stroke-width:1.5"
       x1="16"
       x2="51"
       y1="95.609413"
       y2="95.609413"
       id="line15" />
    <text
       fill="#000000"
       font-family="sans-serif"
       font-size="14px"
       font-weight="bold"
       lengthAdjust="spacing"
       textLength="22"
       x="20"
       y="124.5332"
       id="text17"
       transform="translate(0,-36)">Api</text>
    <!--MD5=[9a32cd3984fdd08205638aa42968fc5c]
cluster v1-->
    <polygon
       fill="#ffffff"
       filter="url(#fnpv56r9r3p99)"
       points="473,204.1094 473,475 344,475 344,180.5 367,180.5 374,204.1094 "
       style="stroke:#000000;stroke-width:1.5"
       id="polygon19"
       transform="translate(0,-36)" />
    <line
       style="stroke:#000000;stroke-width:1.5"
       x1="344"
       x2="374"
       y1="168.10941"
       y2="168.10941"
       id="line21" />
    <text
       fill="#000000"
       font-family="sans-serif"
       font-size="14px"
       font-weight="bold"
       lengthAdjust="spacing"
       textLength="17"
       x="348"
       y="197.0332"
       id="text23"
       transform="translate(0,-36)">v1</text>
    <!--MD5=[8f568eda7f993736a9f8e47c0c4df829]
cluster v2-->
    <polygon
       fill="#ffffff"
       filter="url(#fnpv56r9r3p99)"
       points="198,175.6094 198,475 40,475 40,152 63,152 70,175.6094 "
       style="stroke:#000000;stroke-width:1.5"
       id="polygon25"
       transform="translate(0,-36)" />
    <line
       style="stroke:#000000;stroke-width:1.5"
       x1="40"
       x2="70"
       y1="139.60941"
       y2="139.60941"
       id="line27" />
    <text
       fill="#000000"
       font-family="sans-serif"
       font-size="14px"
       font-weight="bold"
       lengthAdjust="spacing"
       textLength="17"
       x="44"
       y="168.5332"
       id="text29"
       transform="translate(0,-36)">v2</text>
    <!--MD5=[d01ad76c199fe17d587d1aee33ac10b8]
class CommonLogic-->
    <rect
       codeLine="9"
       fill="#fefece"
       filter="url(#fnpv56r9r3p99)"
       height="32"
       id="CommonLogic"
       style="stroke:#a80036;stroke-width:1.5"
       width="114"
       x="214"
       y="373" />
    <ellipse
       cx="229"
       cy="389"
       fill="#a9dcdf"
       style="stroke:#a80036;stroke-width:1"
       id="ellipse32"
       r="11" />
    <path
       d="m 231.1875,390.7656 h -4.1406 l -0.4219,1.0313 h 0.4219 q 0.6094,0 0.875,0.2344 0.2656,0.2343 0.2656,0.625 0,0.375 -0.2656,0.6093 -0.2656,0.2344 -0.875,0.2344 H 224.75 q -0.6094,0 -0.8594,-0.2344 -0.2656,-0.2343 -0.2656,-0.625 0,-0.375 0.2813,-0.6093 0.2656,-0.25 0.8906,-0.2344 l 2.6719,-6.6563 h -1.1094 q -0.6094,0 -0.875,-0.2343 -0.2656,-0.2344 -0.2656,-0.625 0,-0.375 0.2656,-0.6094 0.2656,-0.2344 0.875,-0.2344 h 3.6719 l 3.3906,8.3594 q 0.5937,0 0.7812,0.1406 0.3907,0.2656 0.3907,0.7188 0,0.375 -0.2657,0.6093 -0.25,0.2344 -0.8593,0.2344 h -2.2969 q -0.6094,0 -0.875,-0.2344 -0.2656,-0.2343 -0.2656,-0.625 0,-0.375 0.2656,-0.6093 0.2656,-0.2344 0.875,-0.2344 h 0.4219 z m -0.7187,-1.7031 -1.3594,-3.375 -1.375,3.375 z"
       fill="#000000"
       id="path34" />
    <text
       fill="#000000"
       font-family="sans-serif"
       font-size="12px"
       font-style="italic"
       lengthAdjust="spacing"
       textLength="82"
       x="243"
       y="429.91019"
       id="text36"
       transform="translate(0,-36)">CommonLogic</text>
    <!--MD5=[9319f6a29b119d01e1f5b6d1a6e1c87d]
class IV1Logic-->
    <rect
       codeLine="12"
       fill="#fefece"
       filter="url(#fnpv56r9r3p99)"
       height="67.671898"
       id="IV1Logic"
       style="stroke:#a80036;stroke-width:1.5"
       width="81"
       x="363.5"
       y="355" />
    <ellipse
       cx="378.5"
       cy="371"
       fill="#b4a7e5"
       style="stroke:#a80036;stroke-width:1"
       id="ellipse39"
       r="11" />
    <path
       d="m 379.4531,367.6406 v 6.6563 h 1.7188 q 0.6094,0 0.875,0.2344 0.2656,0.2343 0.2656,0.625 0,0.375 -0.2656,0.6093 Q 381.7813,376 381.1719,376 h -5.1406 q -0.6094,0 -0.875,-0.2344 -0.2657,-0.2343 -0.2657,-0.625 0,-0.375 0.2657,-0.6093 0.2656,-0.2344 0.875,-0.2344 h 1.7187 v -6.6563 h -1.7187 q -0.6094,0 -0.875,-0.2343 -0.2657,-0.2344 -0.2657,-0.625 0,-0.375 0.2657,-0.6094 0.2656,-0.2344 0.875,-0.2344 h 5.1406 q 0.6094,0 0.875,0.2344 0.2656,0.2344 0.2656,0.6094 0,0.3906 -0.2656,0.625 -0.2656,0.2343 -0.875,0.2343 z"
       fill="#000000"
       id="path41" />
    <text
       fill="#000000"
       font-family="sans-serif"
       font-size="12px"
       font-style="italic"
       lengthAdjust="spacing"
       textLength="49"
       x="392.5"
       y="411.91019"
       id="text43"
       transform="translate(0,-36)">IV1Logic</text>
    <line
       style="stroke:#a80036;stroke-width:1.5"
       x1="364.5"
       x2="443.5"
       y1="387"
       y2="387"
       id="line45" />
    <text
       fill="#000000"
       font-family="sans-serif"
       font-size="11px"
       lengthAdjust="spacing"
       textLength="45"
       x="369.5"
       y="438.41891"
       id="text47"
       transform="translate(0,-36)">actionA()</text>
    <text
       fill="#000000"
       font-family="sans-serif"
       font-size="11px"
       lengthAdjust="spacing"
       textLength="44"
       x="369.5"
       y="452.25491"
       id="text49"
       transform="translate(0,-36)">actionB()</text>
    <!--MD5=[79864ccd20def053537427cdd976eaa6]
class V1Logic-->
    <rect
       codeLine="16"
       fill="#fefece"
       filter="url(#fnpv56r9r3p99)"
       height="67.671898"
       id="V1Logic"
       style="stroke:#a80036;stroke-width:1.5"
       width="76"
       x="360"
       y="180.5" />
    <ellipse
       cx="375"
       cy="196.5"
       fill="#add1b2"
       style="stroke:#a80036;stroke-width:1"
       id="ellipse52"
       r="11" />
    <path
       d="m 377.7656,192.375 q 0.1563,-0.2187 0.3438,-0.3281 0.1875,-0.1094 0.4062,-0.1094 0.375,0 0.6094,0.2656 0.2344,0.25 0.2344,0.8594 v 1.4531 q 0,0.6094 -0.2344,0.875 -0.2344,0.2657 -0.6094,0.2657 -0.3437,0 -0.5468,-0.2032 -0.2032,-0.1875 -0.3125,-0.7031 -0.0469,-0.3594 -0.2344,-0.5469 -0.3281,-0.375 -0.9375,-0.5937 -0.6094,-0.2188 -1.2344,-0.2188 -0.7656,0 -1.4062,0.3282 -0.625,0.3281 -1.125,1.0781 -0.4844,0.75 -0.4844,1.7812 v 1.0938 q 0,1.2344 0.8906,2.0625 0.8906,0.8125 2.4844,0.8125 0.9375,0 1.5937,-0.25 0.3907,-0.1563 0.8125,-0.5938 0.2657,-0.2656 0.4063,-0.3437 0.1562,-0.0781 0.3594,-0.0781 0.3281,0 0.5781,0.2656 0.2656,0.25 0.2656,0.5937 0,0.3438 -0.3437,0.75 -0.5,0.5782 -1.2969,0.9063 -1.0781,0.4531 -2.375,0.4531 -1.5156,0 -2.7188,-0.625 -0.9843,-0.5 -1.6718,-1.5625 -0.6875,-1.0781 -0.6875,-2.3594 v -1.1562 q 0,-1.3281 0.6093,-2.4688 0.625,-1.1562 1.7188,-1.7656 1.0937,-0.625 2.3281,-0.625 0.7344,0 1.375,0.1719 0.6563,0.1562 1.2031,0.5156 z"
       fill="#000000"
       id="path54" />
    <text
       fill="#000000"
       font-family="sans-serif"
       font-size="12px"
       lengthAdjust="spacing"
       textLength="44"
       x="389"
       y="237.4102"
       id="text56"
       transform="translate(0,-36)">V1Logic</text>
    <line
       style="stroke:#a80036;stroke-width:1.5"
       x1="361"
       x2="435"
       y1="212.5"
       y2="212.5"
       id="line58" />
    <ellipse
       cx="371"
       cy="223.5"
       fill="#84be84"
       style="stroke:#038048;stroke-width:1"
       id="ellipse60"
       r="3" />
    <text
       fill="#000000"
       font-family="sans-serif"
       font-size="11px"
       lengthAdjust="spacing"
       textLength="45"
       x="380"
       y="263.91891"
       id="text62"
       transform="translate(0,-36)">actionA()</text>
    <ellipse
       cx="371"
       cy="237.33591"
       fill="#84be84"
       style="stroke:#038048;stroke-width:1"
       id="ellipse64"
       r="3" />
    <text
       fill="#000000"
       font-family="sans-serif"
       font-size="11px"
       lengthAdjust="spacing"
       textLength="44"
       x="380"
       y="277.75491"
       id="text66"
       transform="translate(0,-36)">actionB()</text>
    <!--MD5=[210e10787dec2c59424631fb88a96eb2]
class IV2Logic-->
    <rect
       codeLine="23"
       fill="#fefece"
       filter="url(#fnpv56r9r3p99)"
       height="67.671898"
       id="IV2Logic"
       style="stroke:#a80036;stroke-width:1.5"
       width="81"
       x="78.5"
       y="355" />
    <ellipse
       cx="93.5"
       cy="371"
       fill="#b4a7e5"
       style="stroke:#a80036;stroke-width:1"
       id="ellipse69"
       r="11" />
    <path
       d="m 94.4531,367.6406 v 6.6563 h 1.7188 q 0.6094,0 0.875,0.2344 0.2656,0.2343 0.2656,0.625 0,0.375 -0.2656,0.6093 Q 96.7813,376 96.1719,376 h -5.1406 q -0.6094,0 -0.875,-0.2344 -0.2657,-0.2343 -0.2657,-0.625 0,-0.375 0.2657,-0.6093 0.2656,-0.2344 0.875,-0.2344 H 92.75 v -6.6563 h -1.7187 q -0.6094,0 -0.875,-0.2343 -0.2657,-0.2344 -0.2657,-0.625 0,-0.375 0.2657,-0.6094 0.2656,-0.2344 0.875,-0.2344 h 5.1406 q 0.6094,0 0.875,0.2344 0.2656,0.2344 0.2656,0.6094 0,0.3906 -0.2656,0.625 -0.2656,0.2343 -0.875,0.2343 z"
       fill="#000000"
       id="path71" />
    <text
       fill="#000000"
       font-family="sans-serif"
       font-size="12px"
       font-style="italic"
       lengthAdjust="spacing"
       textLength="49"
       x="107.5"
       y="411.91019"
       id="text73"
       transform="translate(0,-36)">IV2Logic</text>
    <line
       style="stroke:#a80036;stroke-width:1.5"
       x1="79.5"
       x2="158.5"
       y1="387"
       y2="387"
       id="line75" />
    <text
       fill="#000000"
       font-family="sans-serif"
       font-size="11px"
       lengthAdjust="spacing"
       textLength="44"
       x="84.5"
       y="438.41891"
       id="text77"
       transform="translate(0,-36)">actionC()</text>
    <text
       fill="#000000"
       font-family="sans-serif"
       font-size="11px"
       lengthAdjust="spacing"
       textLength="44"
       x="84.5"
       y="452.25491"
       id="text79"
       transform="translate(0,-36)">actionD()</text>
    <!--MD5=[d364b3ef4f993ae241c602c8bf7cd1a3]
class V2Logic-->
    <rect
       codeLine="27"
       fill="#fefece"
       filter="url(#fnpv56r9r3p99)"
       height="125.1797"
       id="V2Logic"
       style="stroke:#a80036;stroke-width:1.5"
       width="126"
       x="56"
       y="152" />
    <ellipse
       cx="93.5"
       cy="168"
       fill="#add1b2"
       style="stroke:#a80036;stroke-width:1"
       id="ellipse82"
       r="11" />
    <path
       d="m 96.2656,163.875 q 0.1563,-0.2187 0.3438,-0.3281 0.1875,-0.1094 0.4062,-0.1094 0.375,0 0.6094,0.2656 0.2344,0.25 0.2344,0.8594 v 1.4531 q 0,0.6094 -0.2344,0.875 -0.2344,0.2657 -0.6094,0.2657 -0.3437,0 -0.5468,-0.2032 -0.2032,-0.1875 -0.3125,-0.7031 -0.0469,-0.3594 -0.2344,-0.5469 -0.3281,-0.375 -0.9375,-0.5937 -0.6094,-0.2188 -1.2344,-0.2188 -0.7656,0 -1.4062,0.3282 -0.625,0.3281 -1.125,1.0781 -0.4844,0.75 -0.4844,1.7812 v 1.0938 q 0,1.2344 0.8906,2.0625 0.8906,0.8125 2.4844,0.8125 0.9375,0 1.5937,-0.25 0.3907,-0.1563 0.8125,-0.5938 0.2657,-0.2656 0.4063,-0.3437 0.1562,-0.0781 0.3594,-0.0781 0.3281,0 0.5781,0.2656 0.2656,0.25 0.2656,0.5937 0,0.3438 -0.3437,0.75 -0.5,0.5782 -1.2969,0.9063 -1.0781,0.4531 -2.375,0.4531 -1.5156,0 -2.7188,-0.625 -0.9843,-0.5 -1.6718,-1.5625 -0.6875,-1.0781 -0.6875,-2.3594 v -1.1562 q 0,-1.3281 0.6093,-2.4688 0.625,-1.1562 1.7188,-1.7656 1.0937,-0.625 2.3281,-0.625 0.7344,0 1.375,0.1719 0.6563,0.1562 1.2031,0.5156 z"
       fill="#000000"
       id="path84" />
    <text
       fill="#000000"
       font-family="sans-serif"
       font-size="12px"
       lengthAdjust="spacing"
       textLength="44"
       x="112.5"
       y="208.9102"
       id="text86"
       transform="translate(0,-36)">V2Logic</text>
    <line
       style="stroke:#a80036;stroke-width:1.5"
       x1="57"
       x2="181"
       y1="184"
       y2="184"
       id="line88" />
    <rect
       fill="none"
       height="6"
       style="stroke:#c82930;stroke-width:1"
       width="6"
       x="64"
       y="192"
       id="rect90" />
    <text
       fill="#000000"
       font-family="sans-serif"
       font-size="11px"
       lengthAdjust="spacing"
       textLength="100"
       x="76"
       y="235.4189"
       id="text92"
       transform="translate(0,-36)">oldV1Logic: V1Logic</text>
    <line
       style="stroke:#a80036;stroke-width:1;stroke-dasharray:1, 2"
       x1="57"
       x2="181"
       y1="205.83591"
       y2="205.83591"
       id="line94" />
    <ellipse
       cx="67"
       cy="216.83591"
       fill="#84be84"
       style="stroke:#038048;stroke-width:1"
       id="ellipse96"
       r="3" />
    <text
       fill="#000000"
       font-family="sans-serif"
       font-size="11px"
       lengthAdjust="spacing"
       textLength="44"
       x="76"
       y="257.25491"
       id="text98"
       transform="translate(0,-36)">actionC()</text>
    <ellipse
       cx="67"
       cy="230.67191"
       fill="#84be84"
       style="stroke:#038048;stroke-width:1"
       id="ellipse100"
       r="3" />
    <text
       fill="#000000"
       font-family="sans-serif"
       font-size="11px"
       lengthAdjust="spacing"
       textLength="44"
       x="76"
       y="271.09079"
       id="text102"
       transform="translate(0,-36)">actionD()</text>
    <line
       style="stroke:#a80036;stroke-width:1.5"
       x1="57"
       x2="181"
       y1="241.50781"
       y2="241.50781"
       id="line104" />
    <ellipse
       cx="67"
       cy="252.50781"
       fill="#84be84"
       style="stroke:#038048;stroke-width:1"
       id="ellipse106"
       r="3" />
    <text
       fill="#000000"
       font-family="sans-serif"
       font-size="11px"
       lengthAdjust="spacing"
       textLength="45"
       x="76"
       y="292.92679"
       id="text108"
       transform="translate(0,-36)">actionA()</text>
    <ellipse
       cx="67"
       cy="266.34381"
       fill="#84be84"
       style="stroke:#038048;stroke-width:1"
       id="ellipse110"
       r="3" />
    <text
       fill="#000000"
       font-family="sans-serif"
       font-size="11px"
       lengthAdjust="spacing"
       textLength="44"
       x="76"
       y="306.7627"
       id="text112"
       transform="translate(0,-36)">actionB()</text>
    <!--MD5=[0ba5ee7700168656dc1b457c6fe9fdac]
entity Client-->
    <circle
       cx="119"
       cy="51.164864"
       fill="#fefece"
       filter="url(#fnpv56r9r3p99)"
       style="stroke:#a80036;stroke-width:1.5"
       id="ellipse114"
       r="8" />
    <text
       fill="#000000"
       font-family="sans-serif"
       font-size="14px"
       lengthAdjust="spacing"
       textLength="36"
       x="101"
       y="45.533199"
       id="text116"
       transform="translate(32.137837,31.694594)">Client</text>
    <path
       d="m 197.59189,175.69189 v 17.3516 l -17.48919,3.92586 17.48919,4.07414 v 17.3515 h 141 v -32.7031 l -10,-10 h -131"
       fill="#fbfb77"
       filter="url(#fnpv56r9r3p99)"
       style="stroke:#a80036;stroke-width:1"
       id="path118"
       sodipodi:nodetypes="ccccccccc" />
    <path
       d="m 328.59189,175.69189 v 10 h 10 l -10,-10"
       fill="#fbfb77"
       style="stroke:#a80036;stroke-width:1"
       id="path120" />
    <text
       fill="#000000"
       font-family="sans-serif"
       font-size="13px"
       lengthAdjust="spacing"
       textLength="120"
       x="519.5"
       y="242.4951"
       id="text122"
       transform="translate(-315.90811,-48.30811)">oldV1Logic.actionA()</text>
    <text
       fill="#000000"
       font-family="sans-serif"
       font-size="13px"
       lengthAdjust="spacing"
       textLength="120"
       x="519.5"
       y="258.84671"
       id="text124"
       transform="translate(-315.90811,-48.30811)">oldV1Logic.actionB()</text>
    <!--MD5=[46ec2ae8cc185fc3cdac2ec3016ae54f]
link V1Logic to CommonLogic-->
    <path
       codeLine="39"
       d="M 384.38,248.94 C 374.26,271.62 359.11,301.62 341,325 c -13.09,16.9 -31.06,32.96 -45.51,44.64"
       fill="none"
       id="V1Logic-to-CommonLogic"
       style="stroke:#a80036;stroke-width:1" />
    <polygon
       fill="#a80036"
       points="301.0377,406.3255 295.4157,405.6983 296.0429,400.0763 291.51,408.82 "
       style="stroke:#a80036;stroke-width:1"
       id="polygon127"
       transform="translate(0,-36)" />
    <!--MD5=[d2ebf525126bdd4d1bb58817c8976931]
link V1Logic to IV1Logic-->
    <path
       codeLine="40"
       d="m 399.16,248.76 c 1,28.88 2.46,70.69 3.51,100.95"
       fill="none"
       id="V1Logic-to-IV1Logic"
       style="stroke:#a80036;stroke-width:1;stroke-dasharray:7, 7" />
    <polygon
       fill="#a80036"
       points="406.5132,381.6977 402.6644,385.8434 398.5187,381.9947 402.85,390.84 "
       style="stroke:#a80036;stroke-width:1"
       id="polygon130"
       transform="translate(0,-36)" />
    <text
       fill="#000000"
       font-family="sans-serif"
       font-size="13px"
       lengthAdjust="spacing"
       textLength="60"
       x="402"
       y="357.49509"
       id="text132"
       transform="translate(0,-36)">implement</text>
    <!--MD5=[934749e7920dfd25951293b4d27c9914]
link V2Logic to CommonLogic-->
    <path
       codeLine="41"
       d="m 173.45,277.29 c 28.38,32.22 61.15,69.4 80.56,91.43"
       fill="none"
       id="V2Logic-to-CommonLogic"
       style="stroke:#a80036;stroke-width:1" />
    <polygon
       fill="#a80036"
       points="254.5461,399.2583 254.1804,404.9033 248.5354,404.5376 257.48,408.66 "
       style="stroke:#a80036;stroke-width:1"
       id="polygon135"
       transform="translate(0,-36)" />
    <!--MD5=[b31a53134626980b4285f93ba38cf7b5]
link V2Logic to IV2Logic-->
    <path
       codeLine="42"
       d="M 70.99,277.14 C 64.25,292.52 61.31,309.16 67,325 c 3.24,9.01 8.38,17.65 14.21,25.48"
       fill="none"
       id="V2Logic-to-IV2Logic"
       style="stroke:#a80036;stroke-width:1;stroke-dasharray:7, 7" />
    <polygon
       fill="#a80036"
       points="82.1631,381.1824 81.4432,386.7933 75.8323,386.0733 84.5,390.75 "
       style="stroke:#a80036;stroke-width:1"
       id="polygon138"
       transform="translate(0,-36)" />
    <text
       fill="#000000"
       font-family="sans-serif"
       font-size="13px"
       lengthAdjust="spacing"
       textLength="60"
       x="68"
       y="357.49509"
       id="text140"
       transform="translate(0,-36)">implement</text>
    <!--MD5=[24dde7be4b2f2c91b425389241901640]
link V2Logic to IV1Logic-->
    <path
       codeLine="43"
       d="m 182.14,249.35 c 48.2,26.47 115.92,65 176.85,105.03"
       fill="none"
       id="V2Logic-to-IV1Logic"
       style="stroke:#a80036;stroke-width:1;stroke-dasharray:7, 7" />
    <polygon
       fill="#a80036"
       points="358.0674,384.9604 359.1988,390.503 353.6562,391.6344 363.37,393.26 "
       style="stroke:#a80036;stroke-width:1"
       id="polygon143"
       transform="translate(0,-36)" />
    <text
       fill="#000000"
       font-family="sans-serif"
       font-size="13px"
       lengthAdjust="spacing"
       textLength="60"
       x="309"
       y="357.49509"
       id="text145"
       transform="translate(0,-36)">implement</text>
    <!--MD5=[5caab316c215afe41a18d98ebcd0d2a4]
link Client to V2Logic-->
    <path
       codeLine="45"
       d="M 119,60.234865 V 151.91"
       fill="none"
       id="Client-V2Logic"
       style="stroke:#a80036;stroke-width:1"
       sodipodi:nodetypes="cc" />
    <text
       fill="#000000"
       font-family="sans-serif"
       font-size="13px"
       lengthAdjust="spacing"
       textLength="45"
       x="120"
       y="88.495102"
       id="text148"
       transform="translate(2.0513511,29.643243)">call API</text>
    <!--MD5=[ccde9edc7b4af4a5dcd322ec77762854]
link V2Logic to V2Logic$$$RIGHT-->
    <!--MD5=[021d60bb0db10945a63d420a71daac3a]
@startuml api_versioning

' skinparam linetype ortho

hide empty members

circle Client

package Api {
    abstract class CommonLogic

    package v1 {
        interface IV1Logic {
            actionA()
            actionB()
        }
        class V1Logic{
            +actionA()
            +actionB()
        }
    }

    package v2 {
        interface IV2Logic {
            actionC()
            actionD()
        }
        class V2Logic {
            -oldV1Logic: V1Logic
            ..
            +actionC()
            +actionD()
            ___
            +actionA()
            +actionB()
        }
    }
}

V1Logic - -> CommonLogic
V1Logic ..> IV1Logic : implement
V2Logic - -> CommonLogic
V2Logic ..> IV2Logic : implement
V2Logic ..> IV1Logic : implement

Client - - V2Logic : call API

note right of V2Logic::oldV1Logic
    oldV1Logic.actionA()
    oldV1Logic.actionB()
endnote

' note as N1
' UML arrow specification
' <img:legends.svg>
' endnote

@enduml

@startuml api_versioning


hide empty members

circle Client

package Api {
    abstract class CommonLogic

    package v1 {
        interface IV1Logic {
            actionA()
            actionB()
        }
        class V1Logic{
            +actionA()
            +actionB()
        }
    }

    package v2 {
        interface IV2Logic {
            actionC()
            actionD()
        }
        class V2Logic {
            -oldV1Logic: V1Logic
            ..
            +actionC()
            +actionD()
            ___
            +actionA()
            +actionB()
        }
    }
}

V1Logic - -> CommonLogic
V1Logic ..> IV1Logic : implement
V2Logic - -> CommonLogic
V2Logic ..> IV2Logic : implement
V2Logic ..> IV1Logic : implement

Client - - V2Logic : call API

note right of V2Logic::oldV1Logic
    oldV1Logic.actionA()
    oldV1Logic.actionB()
endnote


@enduml

PlantUML version 1.2021.5(Sun Apr 25 07:20:28 EDT 2021)
(GPL source distribution)
Java Runtime: OpenJDK Runtime Environment
JVM: OpenJDK 64-Bit Server VM
Default Encoding: Cp1252
Language: en
Country: US
-->
  </g>
</svg>
