<?xml version="1.0" encoding="UTF-8" standalone="no"?><svg xmlns="http://www.w3.org/2000/svg" xmlns:xlink="http://www.w3.org/1999/xlink" contentScriptType="application/ecmascript" contentStyleType="text/css" height="391px" preserveAspectRatio="none" style="width:411px;height:391px;" version="1.1" viewBox="0 0 411 391" width="411px" zoomAndPan="magnify"><defs><filter height="300%" id="f1b0svn9c7kibh" width="300%" x="-1" y="-1"><feGaussianBlur result="blurOut" stdDeviation="2.0"/><feColorMatrix in="blurOut" result="blurOut2" type="matrix" values="0 0 0 0 0 0 0 0 0 0 0 0 0 0 0 0 0 0 .4 0"/><feOffset dx="4.0" dy="4.0" in="blurOut2" result="blurOut3"/><feBlend in="SourceGraphic" in2="blurOut3" mode="normal"/></filter></defs><g><rect fill="#FFFFFF" filter="url(#f1b0svn9c7kibh)" height="254.4609" style="stroke:#A80036;stroke-width:1.0;" width="10" x="175" y="73.9609"/><rect fill="#FFFFFF" filter="url(#f1b0svn9c7kibh)" height="30.3516" style="stroke:#A80036;stroke-width:1.0;" width="10" x="355" y="104.3125"/><rect fill="#FFFFFF" filter="url(#f1b0svn9c7kibh)" height="14" style="stroke:#A80036;stroke-width:1.0;" width="10" x="355" y="209.3672"/><line style="stroke:#A80036;stroke-width:1.0;stroke-dasharray:5.0,5.0;" x1="32" x2="32" y1="41.6094" y2="346.4219"/><line style="stroke:#A80036;stroke-width:1.0;stroke-dasharray:5.0,5.0;" x1="180" x2="180" y1="41.6094" y2="346.4219"/><line style="stroke:#A80036;stroke-width:1.0;stroke-dasharray:5.0,5.0;" x1="359.5" x2="359.5" y1="41.6094" y2="346.4219"/><rect fill="#FEFECE" filter="url(#f1b0svn9c7kibh)" height="31.6094" style="stroke:#A80036;stroke-width:1.5;" width="50" x="5" y="5"/><text fill="#000000" font-family="sans-serif" font-size="14" lengthAdjust="spacing" textLength="36" x="12" y="26.5332">Client</text><rect fill="#FEFECE" filter="url(#f1b0svn9c7kibh)" height="31.6094" style="stroke:#A80036;stroke-width:1.5;" width="50" x="5" y="345.4219"/><text fill="#000000" font-family="sans-serif" font-size="14" lengthAdjust="spacing" textLength="36" x="12" y="366.9551">Client</text><rect fill="#FEFECE" filter="url(#f1b0svn9c7kibh)" height="31.6094" style="stroke:#A80036;stroke-width:1.5;" width="76" x="140" y="5"/><text fill="#000000" font-family="sans-serif" font-size="14" lengthAdjust="spacing" textLength="62" x="147" y="26.5332">Controller</text><rect fill="#FEFECE" filter="url(#f1b0svn9c7kibh)" height="31.6094" style="stroke:#A80036;stroke-width:1.5;" width="76" x="140" y="345.4219"/><text fill="#000000" font-family="sans-serif" font-size="14" lengthAdjust="spacing" textLength="62" x="147" y="366.9551">Controller</text><rect fill="#FEFECE" filter="url(#f1b0svn9c7kibh)" height="31.6094" style="stroke:#A80036;stroke-width:1.5;" width="75" x="320.5" y="5"/><text fill="#000000" font-family="sans-serif" font-size="14" lengthAdjust="spacing" textLength="61" x="327.5" y="26.5332">Database</text><rect fill="#FEFECE" filter="url(#f1b0svn9c7kibh)" height="31.6094" style="stroke:#A80036;stroke-width:1.5;" width="75" x="320.5" y="345.4219"/><text fill="#000000" font-family="sans-serif" font-size="14" lengthAdjust="spacing" textLength="61" x="327.5" y="366.9551">Database</text><rect fill="#FFFFFF" filter="url(#f1b0svn9c7kibh)" height="254.4609" style="stroke:#A80036;stroke-width:1.0;" width="10" x="175" y="73.9609"/><rect fill="#FFFFFF" filter="url(#f1b0svn9c7kibh)" height="30.3516" style="stroke:#A80036;stroke-width:1.0;" width="10" x="355" y="104.3125"/><rect fill="#FFFFFF" filter="url(#f1b0svn9c7kibh)" height="14" style="stroke:#A80036;stroke-width:1.0;" width="10" x="355" y="209.3672"/><polygon fill="#A80036" points="163,69.9609,173,73.9609,163,77.9609,167,73.9609" style="stroke:#A80036;stroke-width:1.0;"/><line style="stroke:#A80036;stroke-width:1.0;stroke-dasharray:2.0,2.0;" x1="32" x2="169" y1="73.9609" y2="73.9609"/><text fill="#000000" font-family="sans-serif" font-size="13" lengthAdjust="spacing" textLength="35" x="39" y="69.1045">POST</text><polygon fill="#A80036" points="343,100.3125,353,104.3125,343,108.3125,347,104.3125" style="stroke:#A80036;stroke-width:1.0;"/><line style="stroke:#A80036;stroke-width:1.0;stroke-dasharray:2.0,2.0;" x1="185" x2="349" y1="104.3125" y2="104.3125"/><text fill="#000000" font-family="sans-serif" font-size="13" lengthAdjust="spacing" textLength="75" x="192" y="99.4561">create object</text><polygon fill="#A80036" points="196,130.6641,186,134.6641,196,138.6641,192,134.6641" style="stroke:#A80036;stroke-width:1.0;"/><line style="stroke:#A80036;stroke-width:1.0;stroke-dasharray:2.0,2.0;" x1="190" x2="359" y1="134.6641" y2="134.6641"/><text fill="#000000" font-family="sans-serif" font-size="13" lengthAdjust="spacing" textLength="146" x="202" y="129.8076">number of affected record</text><rect fill="#EEEEEE" filter="url(#f1b0svn9c7kibh)" height="3" style="stroke:#EEEEEE;stroke-width:1.0;" width="404.5" x="0" y="163.8398"/><line style="stroke:#000000;stroke-width:1.0;" x1="0" x2="404.5" y1="163.8398" y2="163.8398"/><line style="stroke:#000000;stroke-width:1.0;" x1="0" x2="404.5" y1="166.8398" y2="166.8398"/><rect fill="#EEEEEE" filter="url(#f1b0svn9c7kibh)" height="24.3516" style="stroke:#000000;stroke-width:2.0;" width="168" x="118.25" y="152.6641"/><text fill="#000000" font-family="sans-serif" font-size="13" font-weight="bold" lengthAdjust="spacing" textLength="150" x="124.25" y="170.1592">if client need the object</text><polygon fill="#A80036" points="343,205.3672,353,209.3672,343,213.3672,347,209.3672" style="stroke:#A80036;stroke-width:1.0;"/><line style="stroke:#A80036;stroke-width:1.0;stroke-dasharray:2.0,2.0;" x1="185" x2="349" y1="209.3672" y2="209.3672"/><text fill="#000000" font-family="sans-serif" font-size="13" lengthAdjust="spacing" textLength="84" x="192" y="204.5107">get new object</text><polygon fill="#A80036" points="196,219.3672,186,223.3672,196,227.3672,192,223.3672" style="stroke:#A80036;stroke-width:1.0;"/><line style="stroke:#A80036;stroke-width:1.0;stroke-dasharray:2.0,2.0;" x1="190" x2="359" y1="223.3672" y2="223.3672"/><polygon fill="#A80036" points="43,249.7188,33,253.7188,43,257.7188,39,253.7188" style="stroke:#A80036;stroke-width:1.0;"/><line style="stroke:#A80036;stroke-width:1.0;stroke-dasharray:2.0,2.0;" x1="37" x2="174" y1="253.7188" y2="253.7188"/><text fill="#000000" font-family="sans-serif" font-size="13" lengthAdjust="spacing" textLength="119" x="49" y="248.8623">newly created object</text><rect fill="#EEEEEE" filter="url(#f1b0svn9c7kibh)" height="3" style="stroke:#EEEEEE;stroke-width:1.0;" width="404.5" x="0" y="282.8945"/><line style="stroke:#000000;stroke-width:1.0;" x1="0" x2="404.5" y1="282.8945" y2="282.8945"/><line style="stroke:#000000;stroke-width:1.0;" x1="0" x2="404.5" y1="285.8945" y2="285.8945"/><rect fill="#EEEEEE" filter="url(#f1b0svn9c7kibh)" height="24.3516" style="stroke:#000000;stroke-width:2.0;" width="247" x="78.75" y="271.7188"/><text fill="#000000" font-family="sans-serif" font-size="13" font-weight="bold" lengthAdjust="spacing" textLength="229" x="84.75" y="289.2139">default (client don't need the object)</text><polygon fill="#A80036" points="43,324.4219,33,328.4219,43,332.4219,39,328.4219" style="stroke:#A80036;stroke-width:1.0;"/><line style="stroke:#A80036;stroke-width:1.0;stroke-dasharray:2.0,2.0;" x1="37" x2="179" y1="328.4219" y2="328.4219"/><text fill="#000000" font-family="sans-serif" font-size="13" lengthAdjust="spacing" textLength="44" x="49" y="323.5654">200 OK</text><!--MD5=[fa4239821850656c55240387cea4648a]
@startuml post_put_patch_return

hide empty members

Client - -> Controller : POST

activate Controller
Controller - -> Database : create object

activate Database
Database - -> Controller : number of affected record
deactivate Database

== if client need the object ==
Controller - -> Database : get new object
activate Database
Database - -> Controller
deactivate Database
Controller - -> Client : newly created object

== default (client don't need the object) ==
Controller - -> Client : 200 OK
deactivate Controller

@enduml

PlantUML version 1.2021.00(Sun Jan 10 05:25:05 EST 2021)
(GPL source distribution)
Java Runtime: OpenJDK Runtime Environment
JVM: OpenJDK 64-Bit Server VM
Default Encoding: Cp1252
Language: en
Country: US
--></g></svg>