<?xml version="1.0" encoding="UTF-8" standalone="no"?><svg xmlns="http://www.w3.org/2000/svg" xmlns:xlink="http://www.w3.org/1999/xlink" contentScriptType="application/ecmascript" contentStyleType="text/css" height="303px" preserveAspectRatio="none" style="width:183px;height:303px;" version="1.1" viewBox="0 0 183 303" width="183px" zoomAndPan="magnify"><defs><filter height="300%" id="f1gygeqx6fj9he" width="300%" x="-1" y="-1"><feGaussianBlur result="blurOut" stdDeviation="2.0"/><feColorMatrix in="blurOut" result="blurOut2" type="matrix" values="0 0 0 0 0 0 0 0 0 0 0 0 0 0 0 0 0 0 .4 0"/><feOffset dx="4.0" dy="4.0" in="blurOut2" result="blurOut3"/><feBlend in="SourceGraphic" in2="blurOut3" mode="normal"/></filter></defs><g><!--MD5=[d64883541e3d62e3241c4d12decf100d]
cluster Application--><polygon fill="#FFFFFF" filter="url(#f1gygeqx6fj9he)" points="16,108,100,108,107,131.6094,166,131.6094,166,296,16,296,16,108" style="stroke:#000000;stroke-width:1.5;"/><line style="stroke:#000000;stroke-width:1.5;" x1="16" x2="107" y1="131.6094" y2="131.6094"/><text fill="#000000" font-family="sans-serif" font-size="14" font-weight="bold" lengthAdjust="spacing" textLength="78" x="20" y="124.5332">Application</text><!--MD5=[affff89b29e9bb616532cbe14bc74ced]
entity CacheManager--><rect fill="#FEFECE" filter="url(#f1gygeqx6fj9he)" height="37.6094" style="stroke:#000000;stroke-width:1.5;" width="117" x="32.5" y="144"/><text fill="#000000" font-family="sans-serif" font-size="14" lengthAdjust="spacing" textLength="97" x="42.5" y="168.5332">CacheManager</text><!--MD5=[1b9dce2ce56fb0e0072eca4d439af425]
entity Controllers--><rect fill="#FEFECE" filter="url(#f1gygeqx6fj9he)" height="37.6094" style="stroke:#000000;stroke-width:1.5;" width="89" x="46.5" y="242"/><text fill="#000000" font-family="sans-serif" font-size="14" lengthAdjust="spacing" textLength="69" x="56.5" y="266.5332">Controllers</text><!--MD5=[0ba5ee7700168656dc1b457c6fe9fdac]
entity Client--><ellipse cx="91" cy="14" fill="#FEFECE" filter="url(#f1gygeqx6fj9he)" rx="8" ry="8" style="stroke:#A80036;stroke-width:1.5;"/><text fill="#000000" font-family="sans-serif" font-size="14" lengthAdjust="spacing" textLength="36" x="73" y="45.5332">Client</text><!--MD5=[ed9852dd2f2ee526d81e05239b58d739]
link Client to CacheManager--><path d="M94,23.32 C94,23.32 94,139 94,139 " fill="none" id="Client-to-CacheManager" style="stroke:#FF0000;stroke-width:1.0;"/><polygon fill="#FF0000" points="94,144,98,135,94,139,90,135,94,144" style="stroke:#FF0000;stroke-width:1.0;"/><!--MD5=[85836aa80817d4c73d3c2d5a6bb6299d]
link CacheManager to Client--><path d="M88,143.83 C88,143.83 88,28.22 88,28.22 " fill="none" id="CacheManager-to-Client" style="stroke:#008000;stroke-width:1.0;"/><polygon fill="#008000" points="88,23.22,84,32.22,88,28.22,92,32.22,88,23.22" style="stroke:#008000;stroke-width:1.0;"/><!--MD5=[bcda017145541e8d7727a41e670aab29]
link CacheManager to Controllers--><path d="M76.17,182.36 C76.17,182.36 76.17,236.68 76.17,236.68 " fill="none" id="CacheManager-to-Controllers" style="stroke:#FF0000;stroke-width:1.0;"/><polygon fill="#FF0000" points="76.17,241.68,80.17,232.68,76.17,236.68,72.17,232.68,76.17,241.68" style="stroke:#FF0000;stroke-width:1.0;"/><!--MD5=[a1e7fed8eba91c901a2e607ee6f0e0eb]
link Controllers to CacheManager--><path d="M105.83,241.64 C105.83,241.64 105.83,187.32 105.83,187.32 " fill="none" id="Controllers-to-CacheManager" style="stroke:#008000;stroke-width:1.0;"/><polygon fill="#008000" points="105.83,182.32,101.83,191.32,105.83,187.32,109.83,191.32,105.83,182.32" style="stroke:#008000;stroke-width:1.0;"/><!--MD5=[762042201a8af1df1547057448801faf]
@startuml in_memory_caching

hide empty members

skinparam linetype ortho

() Client

package Application {
    rectangle CacheManager
    rectangle Controllers
}

Client - -[#red]-> CacheManager
CacheManager -[#red]-> Controllers
Controllers -[#green]-> CacheManager
CacheManager - -[#green]-> Client

@enduml

PlantUML version 1.2021.5(Sun Apr 25 07:20:28 EDT 2021)
(GPL source distribution)
Java Runtime: OpenJDK Runtime Environment
JVM: OpenJDK 64-Bit Server VM
Default Encoding: Cp1252
Language: en
Country: US
--></g></svg>