<?xml version="1.0" encoding="UTF-8" standalone="no"?><svg xmlns="http://www.w3.org/2000/svg" xmlns:xlink="http://www.w3.org/1999/xlink" contentScriptType="application/ecmascript" contentStyleType="text/css" height="280px" preserveAspectRatio="none" style="width:909px;height:280px;" version="1.1" viewBox="0 0 909 280" width="909px" zoomAndPan="magnify"><defs><filter height="300%" id="fajzev0iq1fk1" width="300%" x="-1" y="-1"><feGaussianBlur result="blurOut" stdDeviation="2.0"/><feColorMatrix in="blurOut" result="blurOut2" type="matrix" values="0 0 0 0 0 0 0 0 0 0 0 0 0 0 0 0 0 0 .4 0"/><feOffset dx="4.0" dy="4.0" in="blurOut2" result="blurOut3"/><feBlend in="SourceGraphic" in2="blurOut3" mode="normal"/></filter></defs><g><!--MD5=[01106b3ab0bf8d2222573737489186a2]
class CacheOperation--><rect codeLine="4" fill="#FEFECE" filter="url(#fajzev0iq1fk1)" height="32" id="CacheOperation" style="stroke:#A80036;stroke-width:1.5;" width="122" x="230" y="121"/><ellipse cx="245" cy="137" fill="#A9DCDF" rx="11" ry="11" style="stroke:#A80036;stroke-width:1.0;"/><path d="M247.1875,138.7656 L243.0469,138.7656 L242.625,139.7969 L243.0469,139.7969 Q243.6563,139.7969 243.9219,140.0313 Q244.1875,140.2656 244.1875,140.6563 Q244.1875,141.0313 243.9219,141.2656 Q243.6563,141.5 243.0469,141.5 L240.75,141.5 Q240.1406,141.5 239.8906,141.2656 Q239.625,141.0313 239.625,140.6406 Q239.625,140.2656 239.9063,140.0313 Q240.1719,139.7813 240.7969,139.7969 L243.4688,133.1406 L242.3594,133.1406 Q241.75,133.1406 241.4844,132.9063 Q241.2188,132.6719 241.2188,132.2813 Q241.2188,131.9063 241.4844,131.6719 Q241.75,131.4375 242.3594,131.4375 L246.0313,131.4375 L249.4219,139.7969 Q250.0156,139.7969 250.2031,139.9375 Q250.5938,140.2031 250.5938,140.6563 Q250.5938,141.0313 250.3281,141.2656 Q250.0781,141.5 249.4688,141.5 L247.1719,141.5 Q246.5625,141.5 246.2969,141.2656 Q246.0313,141.0313 246.0313,140.6406 Q246.0313,140.2656 246.2969,140.0313 Q246.5625,139.7969 247.1719,139.7969 L247.5938,139.7969 L247.1875,138.7656 Z M246.4688,137.0625 L245.1094,133.6875 L243.7344,137.0625 L246.4688,137.0625 Z " fill="#000000"/><text fill="#000000" font-family="sans-serif" font-size="12" font-style="italic" lengthAdjust="spacing" textLength="90" x="259" y="141.9102">CacheOperation</text><!--MD5=[d6260ec034bb2fc2f1457db83149a60b]
class CacheOperation.Builder--><rect codeLine="6" fill="#FEFECE" filter="url(#fajzev0iq1fk1)" height="53.8359" id="CacheOperation.Builder" style="stroke:#A80036;stroke-width:1.5;" width="164" x="304" y="213"/><ellipse cx="319" cy="229" fill="#ADD1B2" rx="11" ry="11" style="stroke:#A80036;stroke-width:1.0;"/><path d="M321.7656,224.875 Q321.9219,224.6563 322.1094,224.5469 Q322.2969,224.4375 322.5156,224.4375 Q322.8906,224.4375 323.125,224.7031 Q323.3594,224.9531 323.3594,225.5625 L323.3594,227.0156 Q323.3594,227.625 323.125,227.8906 Q322.8906,228.1563 322.5156,228.1563 Q322.1719,228.1563 321.9688,227.9531 Q321.7656,227.7656 321.6563,227.25 Q321.6094,226.8906 321.4219,226.7031 Q321.0938,226.3281 320.4844,226.1094 Q319.875,225.8906 319.25,225.8906 Q318.4844,225.8906 317.8438,226.2188 Q317.2188,226.5469 316.7188,227.2969 Q316.2344,228.0469 316.2344,229.0781 L316.2344,230.1719 Q316.2344,231.4063 317.125,232.2344 Q318.0156,233.0469 319.6094,233.0469 Q320.5469,233.0469 321.2031,232.7969 Q321.5938,232.6406 322.0156,232.2031 Q322.2813,231.9375 322.4219,231.8594 Q322.5781,231.7813 322.7813,231.7813 Q323.1094,231.7813 323.3594,232.0469 Q323.625,232.2969 323.625,232.6406 Q323.625,232.9844 323.2813,233.3906 Q322.7813,233.9688 321.9844,234.2969 Q320.9063,234.75 319.6094,234.75 Q318.0938,234.75 316.8906,234.125 Q315.9063,233.625 315.2188,232.5625 Q314.5313,231.4844 314.5313,230.2031 L314.5313,229.0469 Q314.5313,227.7188 315.1406,226.5781 Q315.7656,225.4219 316.8594,224.8125 Q317.9531,224.1875 319.1875,224.1875 Q319.9219,224.1875 320.5625,224.3594 Q321.2188,224.5156 321.7656,224.875 Z " fill="#000000"/><text fill="#000000" font-family="sans-serif" font-size="12" lengthAdjust="spacing" textLength="132" x="333" y="233.9102">CacheOperation.Builder</text><line style="stroke:#A80036;stroke-width:1.5;" x1="305" x2="467" y1="245" y2="245"/><ellipse cx="315" cy="256" fill="#84BE84" rx="3" ry="3" style="stroke:#038048;stroke-width:1.0;"/><text fill="#000000" font-family="sans-serif" font-size="11" font-style="italic" lengthAdjust="spacing" textLength="117" x="324" y="260.4189">build():CacheOperation</text><!--MD5=[8f614abf0a5a80b537bb91ec50ec9197]
class CacheableOperation--><rect codeLine="10" fill="#FEFECE" filter="url(#fajzev0iq1fk1)" height="32" id="CacheableOperation" style="stroke:#A80036;stroke-width:1.5;" width="146" x="90" y="18"/><ellipse cx="105" cy="34" fill="#ADD1B2" rx="11" ry="11" style="stroke:#A80036;stroke-width:1.0;"/><path d="M107.7656,29.875 Q107.9219,29.6563 108.1094,29.5469 Q108.2969,29.4375 108.5156,29.4375 Q108.8906,29.4375 109.125,29.7031 Q109.3594,29.9531 109.3594,30.5625 L109.3594,32.0156 Q109.3594,32.625 109.125,32.8906 Q108.8906,33.1563 108.5156,33.1563 Q108.1719,33.1563 107.9688,32.9531 Q107.7656,32.7656 107.6563,32.25 Q107.6094,31.8906 107.4219,31.7031 Q107.0938,31.3281 106.4844,31.1094 Q105.875,30.8906 105.25,30.8906 Q104.4844,30.8906 103.8438,31.2188 Q103.2188,31.5469 102.7188,32.2969 Q102.2344,33.0469 102.2344,34.0781 L102.2344,35.1719 Q102.2344,36.4063 103.125,37.2344 Q104.0156,38.0469 105.6094,38.0469 Q106.5469,38.0469 107.2031,37.7969 Q107.5938,37.6406 108.0156,37.2031 Q108.2813,36.9375 108.4219,36.8594 Q108.5781,36.7813 108.7813,36.7813 Q109.1094,36.7813 109.3594,37.0469 Q109.625,37.2969 109.625,37.6406 Q109.625,37.9844 109.2813,38.3906 Q108.7813,38.9688 107.9844,39.2969 Q106.9063,39.75 105.6094,39.75 Q104.0938,39.75 102.8906,39.125 Q101.9063,38.625 101.2188,37.5625 Q100.5313,36.4844 100.5313,35.2031 L100.5313,34.0469 Q100.5313,32.7188 101.1406,31.5781 Q101.7656,30.4219 102.8594,29.8125 Q103.9531,29.1875 105.1875,29.1875 Q105.9219,29.1875 106.5625,29.3594 Q107.2188,29.5156 107.7656,29.875 Z " fill="#000000"/><text fill="#000000" font-family="sans-serif" font-size="12" lengthAdjust="spacing" textLength="114" x="119" y="38.9102">CacheableOperation</text><!--MD5=[3a57457d137e72ab8e22ae91dc25e4c4]
class CacheableOperation.Builder--><rect codeLine="12" fill="#FEFECE" filter="url(#fajzev0iq1fk1)" height="32" id="CacheableOperation.Builder" style="stroke:#A80036;stroke-width:1.5;" width="188" x="7" y="121"/><ellipse cx="22" cy="137" fill="#ADD1B2" rx="11" ry="11" style="stroke:#A80036;stroke-width:1.0;"/><path d="M24.7656,132.875 Q24.9219,132.6563 25.1094,132.5469 Q25.2969,132.4375 25.5156,132.4375 Q25.8906,132.4375 26.125,132.7031 Q26.3594,132.9531 26.3594,133.5625 L26.3594,135.0156 Q26.3594,135.625 26.125,135.8906 Q25.8906,136.1563 25.5156,136.1563 Q25.1719,136.1563 24.9688,135.9531 Q24.7656,135.7656 24.6563,135.25 Q24.6094,134.8906 24.4219,134.7031 Q24.0938,134.3281 23.4844,134.1094 Q22.875,133.8906 22.25,133.8906 Q21.4844,133.8906 20.8438,134.2188 Q20.2188,134.5469 19.7188,135.2969 Q19.2344,136.0469 19.2344,137.0781 L19.2344,138.1719 Q19.2344,139.4063 20.125,140.2344 Q21.0156,141.0469 22.6094,141.0469 Q23.5469,141.0469 24.2031,140.7969 Q24.5938,140.6406 25.0156,140.2031 Q25.2813,139.9375 25.4219,139.8594 Q25.5781,139.7813 25.7813,139.7813 Q26.1094,139.7813 26.3594,140.0469 Q26.625,140.2969 26.625,140.6406 Q26.625,140.9844 26.2813,141.3906 Q25.7813,141.9688 24.9844,142.2969 Q23.9063,142.75 22.6094,142.75 Q21.0938,142.75 19.8906,142.125 Q18.9063,141.625 18.2188,140.5625 Q17.5313,139.4844 17.5313,138.2031 L17.5313,137.0469 Q17.5313,135.7188 18.1406,134.5781 Q18.7656,133.4219 19.8594,132.8125 Q20.9531,132.1875 22.1875,132.1875 Q22.9219,132.1875 23.5625,132.3594 Q24.2188,132.5156 24.7656,132.875 Z " fill="#000000"/><text fill="#000000" font-family="sans-serif" font-size="12" lengthAdjust="spacing" textLength="156" x="36" y="141.9102">CacheableOperation.Builder</text><!--MD5=[f7d42dd67c55824083dafac6f48d5ee1]
class CacheEvictOperation--><rect codeLine="14" fill="#FEFECE" filter="url(#fajzev0iq1fk1)" height="32" id="CacheEvictOperation" style="stroke:#A80036;stroke-width:1.5;" width="147" x="275.5" y="18"/><ellipse cx="290.5" cy="34" fill="#ADD1B2" rx="11" ry="11" style="stroke:#A80036;stroke-width:1.0;"/><path d="M293.2656,29.875 Q293.4219,29.6563 293.6094,29.5469 Q293.7969,29.4375 294.0156,29.4375 Q294.3906,29.4375 294.625,29.7031 Q294.8594,29.9531 294.8594,30.5625 L294.8594,32.0156 Q294.8594,32.625 294.625,32.8906 Q294.3906,33.1563 294.0156,33.1563 Q293.6719,33.1563 293.4688,32.9531 Q293.2656,32.7656 293.1563,32.25 Q293.1094,31.8906 292.9219,31.7031 Q292.5938,31.3281 291.9844,31.1094 Q291.375,30.8906 290.75,30.8906 Q289.9844,30.8906 289.3438,31.2188 Q288.7188,31.5469 288.2188,32.2969 Q287.7344,33.0469 287.7344,34.0781 L287.7344,35.1719 Q287.7344,36.4063 288.625,37.2344 Q289.5156,38.0469 291.1094,38.0469 Q292.0469,38.0469 292.7031,37.7969 Q293.0938,37.6406 293.5156,37.2031 Q293.7813,36.9375 293.9219,36.8594 Q294.0781,36.7813 294.2813,36.7813 Q294.6094,36.7813 294.8594,37.0469 Q295.125,37.2969 295.125,37.6406 Q295.125,37.9844 294.7813,38.3906 Q294.2813,38.9688 293.4844,39.2969 Q292.4063,39.75 291.1094,39.75 Q289.5938,39.75 288.3906,39.125 Q287.4063,38.625 286.7188,37.5625 Q286.0313,36.4844 286.0313,35.2031 L286.0313,34.0469 Q286.0313,32.7188 286.6406,31.5781 Q287.2656,30.4219 288.3594,29.8125 Q289.4531,29.1875 290.6875,29.1875 Q291.4219,29.1875 292.0625,29.3594 Q292.7188,29.5156 293.2656,29.875 Z " fill="#000000"/><text fill="#000000" font-family="sans-serif" font-size="12" lengthAdjust="spacing" textLength="115" x="304.5" y="38.9102">CacheEvictOperation</text><!--MD5=[04455419fb15e9e684c59c20b562c962]
class CacheEvictOperation.Builder--><rect codeLine="16" fill="#FEFECE" filter="url(#fajzev0iq1fk1)" height="32" id="CacheEvictOperation.Builder" style="stroke:#A80036;stroke-width:1.5;" width="189" x="387.5" y="121"/><ellipse cx="402.5" cy="137" fill="#ADD1B2" rx="11" ry="11" style="stroke:#A80036;stroke-width:1.0;"/><path d="M405.2656,132.875 Q405.4219,132.6563 405.6094,132.5469 Q405.7969,132.4375 406.0156,132.4375 Q406.3906,132.4375 406.625,132.7031 Q406.8594,132.9531 406.8594,133.5625 L406.8594,135.0156 Q406.8594,135.625 406.625,135.8906 Q406.3906,136.1563 406.0156,136.1563 Q405.6719,136.1563 405.4688,135.9531 Q405.2656,135.7656 405.1563,135.25 Q405.1094,134.8906 404.9219,134.7031 Q404.5938,134.3281 403.9844,134.1094 Q403.375,133.8906 402.75,133.8906 Q401.9844,133.8906 401.3438,134.2188 Q400.7188,134.5469 400.2188,135.2969 Q399.7344,136.0469 399.7344,137.0781 L399.7344,138.1719 Q399.7344,139.4063 400.625,140.2344 Q401.5156,141.0469 403.1094,141.0469 Q404.0469,141.0469 404.7031,140.7969 Q405.0938,140.6406 405.5156,140.2031 Q405.7813,139.9375 405.9219,139.8594 Q406.0781,139.7813 406.2813,139.7813 Q406.6094,139.7813 406.8594,140.0469 Q407.125,140.2969 407.125,140.6406 Q407.125,140.9844 406.7813,141.3906 Q406.2813,141.9688 405.4844,142.2969 Q404.4063,142.75 403.1094,142.75 Q401.5938,142.75 400.3906,142.125 Q399.4063,141.625 398.7188,140.5625 Q398.0313,139.4844 398.0313,138.2031 L398.0313,137.0469 Q398.0313,135.7188 398.6406,134.5781 Q399.2656,133.4219 400.3594,132.8125 Q401.4531,132.1875 402.6875,132.1875 Q403.4219,132.1875 404.0625,132.3594 Q404.7188,132.5156 405.2656,132.875 Z " fill="#000000"/><text fill="#000000" font-family="sans-serif" font-size="12" lengthAdjust="spacing" textLength="157" x="416.5" y="141.9102">CacheEvictOperation.Builder</text><!--MD5=[c7ec270d708d26dc540d29e3a1232588]
class CachePutOperation--><rect codeLine="18" fill="#FEFECE" filter="url(#fajzev0iq1fk1)" height="32" id="CachePutOperation" style="stroke:#A80036;stroke-width:1.5;" width="140" x="574" y="18"/><ellipse cx="589" cy="34" fill="#ADD1B2" rx="11" ry="11" style="stroke:#A80036;stroke-width:1.0;"/><path d="M591.7656,29.875 Q591.9219,29.6563 592.1094,29.5469 Q592.2969,29.4375 592.5156,29.4375 Q592.8906,29.4375 593.125,29.7031 Q593.3594,29.9531 593.3594,30.5625 L593.3594,32.0156 Q593.3594,32.625 593.125,32.8906 Q592.8906,33.1563 592.5156,33.1563 Q592.1719,33.1563 591.9688,32.9531 Q591.7656,32.7656 591.6563,32.25 Q591.6094,31.8906 591.4219,31.7031 Q591.0938,31.3281 590.4844,31.1094 Q589.875,30.8906 589.25,30.8906 Q588.4844,30.8906 587.8438,31.2188 Q587.2188,31.5469 586.7188,32.2969 Q586.2344,33.0469 586.2344,34.0781 L586.2344,35.1719 Q586.2344,36.4063 587.125,37.2344 Q588.0156,38.0469 589.6094,38.0469 Q590.5469,38.0469 591.2031,37.7969 Q591.5938,37.6406 592.0156,37.2031 Q592.2813,36.9375 592.4219,36.8594 Q592.5781,36.7813 592.7813,36.7813 Q593.1094,36.7813 593.3594,37.0469 Q593.625,37.2969 593.625,37.6406 Q593.625,37.9844 593.2813,38.3906 Q592.7813,38.9688 591.9844,39.2969 Q590.9063,39.75 589.6094,39.75 Q588.0938,39.75 586.8906,39.125 Q585.9063,38.625 585.2188,37.5625 Q584.5313,36.4844 584.5313,35.2031 L584.5313,34.0469 Q584.5313,32.7188 585.1406,31.5781 Q585.7656,30.4219 586.8594,29.8125 Q587.9531,29.1875 589.1875,29.1875 Q589.9219,29.1875 590.5625,29.3594 Q591.2188,29.5156 591.7656,29.875 Z " fill="#000000"/><text fill="#000000" font-family="sans-serif" font-size="12" lengthAdjust="spacing" textLength="108" x="603" y="38.9102">CachePutOperation</text><!--MD5=[c1d181661fbf11f41025ed1e0e46e6e3]
class CachePutOperation.Builder--><rect codeLine="20" fill="#FEFECE" filter="url(#fajzev0iq1fk1)" height="32" id="CachePutOperation.Builder" style="stroke:#A80036;stroke-width:1.5;" width="182" x="612" y="121"/><ellipse cx="627" cy="137" fill="#ADD1B2" rx="11" ry="11" style="stroke:#A80036;stroke-width:1.0;"/><path d="M629.7656,132.875 Q629.9219,132.6563 630.1094,132.5469 Q630.2969,132.4375 630.5156,132.4375 Q630.8906,132.4375 631.125,132.7031 Q631.3594,132.9531 631.3594,133.5625 L631.3594,135.0156 Q631.3594,135.625 631.125,135.8906 Q630.8906,136.1563 630.5156,136.1563 Q630.1719,136.1563 629.9688,135.9531 Q629.7656,135.7656 629.6563,135.25 Q629.6094,134.8906 629.4219,134.7031 Q629.0938,134.3281 628.4844,134.1094 Q627.875,133.8906 627.25,133.8906 Q626.4844,133.8906 625.8438,134.2188 Q625.2188,134.5469 624.7188,135.2969 Q624.2344,136.0469 624.2344,137.0781 L624.2344,138.1719 Q624.2344,139.4063 625.125,140.2344 Q626.0156,141.0469 627.6094,141.0469 Q628.5469,141.0469 629.2031,140.7969 Q629.5938,140.6406 630.0156,140.2031 Q630.2813,139.9375 630.4219,139.8594 Q630.5781,139.7813 630.7813,139.7813 Q631.1094,139.7813 631.3594,140.0469 Q631.625,140.2969 631.625,140.6406 Q631.625,140.9844 631.2813,141.3906 Q630.7813,141.9688 629.9844,142.2969 Q628.9063,142.75 627.6094,142.75 Q626.0938,142.75 624.8906,142.125 Q623.9063,141.625 623.2188,140.5625 Q622.5313,139.4844 622.5313,138.2031 L622.5313,137.0469 Q622.5313,135.7188 623.1406,134.5781 Q623.7656,133.4219 624.8594,132.8125 Q625.9531,132.1875 627.1875,132.1875 Q627.9219,132.1875 628.5625,132.3594 Q629.2188,132.5156 629.7656,132.875 Z " fill="#000000"/><text fill="#000000" font-family="sans-serif" font-size="12" lengthAdjust="spacing" textLength="150" x="641" y="141.9102">CachePutOperation.Builder</text><!--MD5=[e3f72718913f1e037c5bc72e44de49f6]
class client--><rect codeLine="24" fill="#FEFECE" filter="url(#fajzev0iq1fk1)" height="53.8359" id="client" style="stroke:#A80036;stroke-width:1.5;" width="146" x="749" y="7"/><ellipse cx="803.25" cy="23" fill="#ADD1B2" rx="11" ry="11" style="stroke:#A80036;stroke-width:1.0;"/><path d="M806.0156,18.875 Q806.1719,18.6563 806.3594,18.5469 Q806.5469,18.4375 806.7656,18.4375 Q807.1406,18.4375 807.375,18.7031 Q807.6094,18.9531 807.6094,19.5625 L807.6094,21.0156 Q807.6094,21.625 807.375,21.8906 Q807.1406,22.1563 806.7656,22.1563 Q806.4219,22.1563 806.2188,21.9531 Q806.0156,21.7656 805.9063,21.25 Q805.8594,20.8906 805.6719,20.7031 Q805.3438,20.3281 804.7344,20.1094 Q804.125,19.8906 803.5,19.8906 Q802.7344,19.8906 802.0938,20.2188 Q801.4688,20.5469 800.9688,21.2969 Q800.4844,22.0469 800.4844,23.0781 L800.4844,24.1719 Q800.4844,25.4063 801.375,26.2344 Q802.2656,27.0469 803.8594,27.0469 Q804.7969,27.0469 805.4531,26.7969 Q805.8438,26.6406 806.2656,26.2031 Q806.5313,25.9375 806.6719,25.8594 Q806.8281,25.7813 807.0313,25.7813 Q807.3594,25.7813 807.6094,26.0469 Q807.875,26.2969 807.875,26.6406 Q807.875,26.9844 807.5313,27.3906 Q807.0313,27.9688 806.2344,28.2969 Q805.1563,28.75 803.8594,28.75 Q802.3438,28.75 801.1406,28.125 Q800.1563,27.625 799.4688,26.5625 Q798.7813,25.4844 798.7813,24.2031 L798.7813,23.0469 Q798.7813,21.7188 799.3906,20.5781 Q800.0156,19.4219 801.1094,18.8125 Q802.2031,18.1875 803.4375,18.1875 Q804.1719,18.1875 804.8125,18.3594 Q805.4688,18.5156 806.0156,18.875 Z " fill="#000000"/><text fill="#000000" font-family="sans-serif" font-size="12" lengthAdjust="spacing" textLength="29" x="823.75" y="27.9102">client</text><line style="stroke:#A80036;stroke-width:1.5;" x1="750" x2="894" y1="39" y2="39"/><polygon fill="#FFFF44" points="760,45,764,49,760,53,756,49" style="stroke:#B38D22;stroke-width:1.0;"/><text fill="#000000" font-family="sans-serif" font-size="11" lengthAdjust="spacing" textLength="120" x="769" y="54.4189">invokeOperation():Object</text><!--MD5=[20de290882e9a7b9032293a7b061e9b0]
link CacheableOperation to CacheOperation--><path codeLine="28" d="M182.16,50.12 C204.97,68.12 243.06,98.17 267.59,117.53 " fill="none" id="CacheableOperation-to-CacheOperation" style="stroke:#A80036;stroke-width:1.0;"/><polygon fill="#A80036" points="271.71,120.78,267.103,112.0751,267.7779,117.6915,262.1615,118.3664,271.71,120.78" style="stroke:#A80036;stroke-width:1.0;"/><!--MD5=[ad55b93841f533e0d3d8f7246bd5e12f]
link CacheEvictOperation to CacheOperation--><path codeLine="29" d="M340.19,50.34 C330.08,67.94 313.48,96.86 302.39,116.16 " fill="none" id="CacheEvictOperation-to-CacheOperation" style="stroke:#A80036;stroke-width:1.0;"/><polygon fill="#A80036" points="299.7,120.85,307.6423,115.026,302.1838,116.5105,300.6992,111.052,299.7,120.85" style="stroke:#A80036;stroke-width:1.0;"/><!--MD5=[7b4d303f0dbcdcc5294ac7109bcf83a5]
link CachePutOperation to CacheOperation--><path codeLine="30" d="M591.53,50.01 C526.49,68.62 415.99,100.24 348.64,119.51 " fill="none" id="CachePutOperation-to-CacheOperation" style="stroke:#A80036;stroke-width:1.0;"/><polygon fill="#A80036" points="343.47,120.99,353.2215,122.3713,348.2787,119.6202,351.0298,114.6773,343.47,120.99" style="stroke:#A80036;stroke-width:1.0;"/><!--MD5=[cd4b7271095e66652481a68019df2e2e]
reverse link CacheOperation to CacheOperation.Builder--><path codeLine="32" d="M315.83,164.4 C329.9,179.35 347.42,197.99 361.44,212.89 " fill="none" id="CacheOperation-backto-CacheOperation.Builder" style="stroke:#A80036;stroke-width:1.0;"/><ellipse cx="310.9089" cy="159.1694" fill="#FFFFFF" rx="8" ry="8" style="stroke:#A80036;stroke-width:1.0;"/><line style="stroke:#A80036;stroke-width:1.0;" x1="316.3878" x2="305.43" y1="164.9988" y2="153.34"/><line style="stroke:#A80036;stroke-width:1.0;" x1="305.0795" x2="316.7383" y1="164.6483" y2="153.6905"/><!--MD5=[0d86fea5401c6b41d922441e4476cff3]
reverse link CacheableOperation to CacheableOperation.Builder--><path codeLine="33" d="M145.74,63.13 C134.26,81.81 119.64,105.63 110.3,120.85 " fill="none" id="CacheableOperation-backto-CacheableOperation.Builder" style="stroke:#A80036;stroke-width:1.0;"/><ellipse cx="149.397" cy="57.1593" fill="#FFFFFF" rx="8" ry="8" style="stroke:#A80036;stroke-width:1.0;"/><line style="stroke:#A80036;stroke-width:1.0;" x1="145.214" x2="153.58" y1="63.9786" y2="50.34"/><line style="stroke:#A80036;stroke-width:1.0;" x1="142.5777" x2="156.2163" y1="52.9763" y2="61.3423"/><!--MD5=[90c151661440f0a9faaf81b561561efb]
reverse link CacheEvictOperation to CacheEvictOperation.Builder--><path codeLine="34" d="M381.13,59.4 C406.31,78.52 440.55,104.52 461.95,120.78 " fill="none" id="CacheEvictOperation-backto-CacheEvictOperation.Builder" style="stroke:#A80036;stroke-width:1.0;"/><ellipse cx="375.2806" cy="54.9589" fill="#FFFFFF" rx="8" ry="8" style="stroke:#A80036;stroke-width:1.0;"/><line style="stroke:#A80036;stroke-width:1.0;" x1="381.6512" x2="368.91" y1="59.7979" y2="50.12"/><line style="stroke:#A80036;stroke-width:1.0;" x1="370.4417" x2="380.1195" y1="61.3295" y2="48.5883"/><!--MD5=[f68d096ceaf487facabef4aa74910106]
reverse link CachePutOperation to CachePutOperation.Builder--><path codeLine="35" d="M660.59,63.4 C671.48,82.05 685.3,105.7 694.15,120.85 " fill="none" id="CachePutOperation-backto-CachePutOperation.Builder" style="stroke:#A80036;stroke-width:1.0;"/><ellipse cx="656.9962" cy="57.2472" fill="#FFFFFF" rx="8" ry="8" style="stroke:#A80036;stroke-width:1.0;"/><line style="stroke:#A80036;stroke-width:1.0;" x1="661.0324" x2="652.96" y1="64.1544" y2="50.34"/><line style="stroke:#A80036;stroke-width:1.0;" x1="650.089" x2="663.9034" y1="61.2834" y2="53.211"/><!--MD5=[3049d3ff3a74e6ce08103a9f11cc14b4]
link CacheableOperation.Builder to CacheOperation.Builder--><path codeLine="37" d="M143.36,153.01 C186.56,168.32 254.59,192.43 307.63,211.23 " fill="none" id="CacheableOperation.Builder-to-CacheOperation.Builder" style="stroke:#A80036;stroke-width:1.0;"/><polygon fill="#A80036" points="312.39,212.91,305.244,206.1325,307.6774,211.2392,302.5707,213.6726,312.39,212.91" style="stroke:#A80036;stroke-width:1.0;"/><!--MD5=[68d3a7b5b2d5e15b26e80c1a3b9554a9]
link CacheEvictOperation.Builder to CacheOperation.Builder--><path codeLine="38" d="M467.42,153.34 C453.47,168.01 432.05,190.55 414.68,208.82 " fill="none" id="CacheEvictOperation.Builder-to-CacheOperation.Builder" style="stroke:#A80036;stroke-width:1.0;"/><polygon fill="#A80036" points="410.82,212.89,419.9164,209.1144,414.2615,209.2629,414.113,203.608,410.82,212.89" style="stroke:#A80036;stroke-width:1.0;"/><!--MD5=[b0586fdd3f296af7ee24be2d5f6071fa]
link CachePutOperation.Builder to CacheOperation.Builder--><path codeLine="39" d="M655.88,153.01 C607.74,168.35 531.87,192.53 472.81,211.34 " fill="none" id="CachePutOperation.Builder-to-CacheOperation.Builder" style="stroke:#A80036;stroke-width:1.0;"/><polygon fill="#A80036" points="467.87,212.91,477.6593,213.9917,472.6344,211.3934,475.2327,206.3686,467.87,212.91" style="stroke:#A80036;stroke-width:1.0;"/><!--MD5=[d3fcb091175a37500d606ef1ac9290de]
@startuml spring_cache_operation

hide empty members

abstract CacheOperation

class CacheOperation.Builder {
    {abstract} +build():CacheOperation
}

class CacheableOperation

class CacheableOperation.Builder

class CacheEvictOperation

class CacheEvictOperation.Builder

class CachePutOperation

class CachePutOperation.Builder



class client {
    #invokeOperation():Object
}

CacheableOperation - -> CacheOperation
CacheEvictOperation - -> CacheOperation
CachePutOperation - -> CacheOperation

CacheOperation +- - CacheOperation.Builder
CacheableOperation +- - CacheableOperation.Builder
CacheEvictOperation +- - CacheEvictOperation.Builder
CachePutOperation +- - CachePutOperation.Builder

CacheableOperation.Builder - -> CacheOperation.Builder
CacheEvictOperation.Builder - -> CacheOperation.Builder
CachePutOperation.Builder - -> CacheOperation.Builder


@enduml

PlantUML version 1.2021.5(Sun Apr 25 07:20:28 EDT 2021)
(GPL source distribution)
Java Runtime: OpenJDK Runtime Environment
JVM: OpenJDK 64-Bit Server VM
Default Encoding: Cp1252
Language: en
Country: US
--></g></svg>