<?xml version="1.0" encoding="UTF-8" standalone="no"?><svg xmlns="http://www.w3.org/2000/svg" xmlns:xlink="http://www.w3.org/1999/xlink" contentScriptType="application/ecmascript" contentStyleType="text/css" height="433px" preserveAspectRatio="none" style="width:335px;height:433px;background:#0D1117;" version="1.1" viewBox="0 0 335 433" width="335px" zoomAndPan="magnify"><defs><filter height="300%" id="f1diii596wi596" width="300%" x="-1" y="-1"><feGaussianBlur result="blurOut" stdDeviation="2.0"/><feColorMatrix in="blurOut" result="blurOut2" type="matrix" values="0 0 0 0 0 0 0 0 0 0 0 0 0 0 0 0 0 0 .4 0"/><feOffset dx="4.0" dy="4.0" in="blurOut2" result="blurOut3"/><feBlend in="SourceGraphic" in2="blurOut3" mode="normal"/></filter></defs><g><!--MD5=[4594decfa813e19c08dfa784b2473472]
cluster uow--><polygon fill="#0D1117" filter="url(#f1diii596wi596)" points="16,129,26,119,318,119,318,323,308,333,16,333,16,129" style="stroke:#FF7B72;stroke-width:1.5;"/><line style="stroke:#FF7B72;stroke-width:1.5;" x1="308" x2="318" y1="129" y2="119"/><line style="stroke:#FF7B72;stroke-width:1.5;" x1="16" x2="308" y1="129" y2="129"/><line style="stroke:#FF7B72;stroke-width:1.5;" x1="308" x2="308" y1="129" y2="333"/><text fill="#FF7B72" font-family="sans-serif" font-size="14" font-weight="bold" lengthAdjust="spacing" textLength="86" x="120" y="146.5332">Unit of Work</text><!--MD5=[8958fc62515526d2bb9a2269c7719642]
entity RepositoryA--><rect fill="#FEFECE" filter="url(#f1diii596wi596)" height="47.6094" style="stroke:#A80036;stroke-width:1.5;" width="117" x="32.5" y="160"/><rect fill="#FEFECE" height="10" style="stroke:#A80036;stroke-width:1.5;" width="15" x="129.5" y="165"/><rect fill="#FEFECE" height="2" style="stroke:#A80036;stroke-width:1.5;" width="4" x="127.5" y="167"/><rect fill="#FEFECE" height="2" style="stroke:#A80036;stroke-width:1.5;" width="4" x="127.5" y="171"/><text fill="#000000" font-family="sans-serif" font-size="14" lengthAdjust="spacing" textLength="77" x="47.5" y="194.5332">RepositoryA</text><!--MD5=[3b09946f0cb3802d84c6d6f3b476ecf2]
entity RepositoryB--><rect fill="#FEFECE" filter="url(#f1diii596wi596)" height="47.6094" style="stroke:#A80036;stroke-width:1.5;" width="117" x="184.5" y="160"/><rect fill="#FEFECE" height="10" style="stroke:#A80036;stroke-width:1.5;" width="15" x="281.5" y="165"/><rect fill="#FEFECE" height="2" style="stroke:#A80036;stroke-width:1.5;" width="4" x="279.5" y="167"/><rect fill="#FEFECE" height="2" style="stroke:#A80036;stroke-width:1.5;" width="4" x="279.5" y="171"/><text fill="#000000" font-family="sans-serif" font-size="14" lengthAdjust="spacing" textLength="77" x="199.5" y="194.5332">RepositoryB</text><!--MD5=[293719a36374a47656a48fbb602f2cf6]
entity DatabaseConnector--><rect fill="#FEFECE" filter="url(#f1diii596wi596)" height="47.6094" style="stroke:#A80036;stroke-width:1.5;" width="167" x="83.5" y="269"/><rect fill="#FEFECE" height="10" style="stroke:#A80036;stroke-width:1.5;" width="15" x="230.5" y="274"/><rect fill="#FEFECE" height="2" style="stroke:#A80036;stroke-width:1.5;" width="4" x="228.5" y="276"/><rect fill="#FEFECE" height="2" style="stroke:#A80036;stroke-width:1.5;" width="4" x="228.5" y="280"/><text fill="#000000" font-family="sans-serif" font-size="14" lengthAdjust="spacing" textLength="127" x="98.5" y="303.5332">DatabaseConnector</text><!--MD5=[f855680bc6c989572ebb25245d27968d]
entity Controller--><rect fill="#FEFECE" filter="url(#f1diii596wi596)" height="47.6094" style="stroke:#A80036;stroke-width:1.5;" width="102" x="115" y="7"/><rect fill="#FEFECE" height="10" style="stroke:#A80036;stroke-width:1.5;" width="15" x="197" y="12"/><rect fill="#FEFECE" height="2" style="stroke:#A80036;stroke-width:1.5;" width="4" x="195" y="14"/><rect fill="#FEFECE" height="2" style="stroke:#A80036;stroke-width:1.5;" width="4" x="195" y="18"/><text fill="#000000" font-family="sans-serif" font-size="14" lengthAdjust="spacing" textLength="62" x="130" y="41.5332">Controller</text><!--MD5=[2bba5e7b7fe4bc2fbd9825db3f1d4f93]
entity SQL--><path d="M143,390 C143,380 167,380 167,380 C167,380 191,380 191,390 L191,416.6094 C191,426.6094 167,426.6094 167,426.6094 C167,426.6094 143,426.6094 143,416.6094 L143,390 " fill="#FEFECE" filter="url(#f1diii596wi596)" style="stroke:#000000;stroke-width:1.5;"/><path d="M143,390 C143,400 167,400 167,400 C167,400 191,400 191,390 " fill="none" style="stroke:#000000;stroke-width:1.5;"/><text fill="#000000" font-family="sans-serif" font-size="14" lengthAdjust="spacing" textLength="28" x="153" y="418.5332">SQL</text><!--MD5=[a20fa6896700e833d44cfd7e6cb41482]
reverse link Controller to RepositoryA--><path d="M152.22,59.74 C137.92,88.53 115.81,133.04 102.44,159.96 " fill="none" id="Controller-backto-RepositoryA" style="stroke:#FF7B72;stroke-width:1.0;stroke-dasharray:7.0,7.0;"/><polygon fill="#FF7B72" points="154.45,55.26,146.8634,61.5404,152.2253,59.7378,154.0279,65.0998,154.45,55.26" style="stroke:#FF7B72;stroke-width:1.0;"/><text fill="#FF7B72" font-family="sans-serif" font-size="13" lengthAdjust="spacing" textLength="31" x="141" y="99.4951">inject</text><!--MD5=[6d2858441bc4e56ec0c108308caed3e8]
reverse link Controller to RepositoryB--><path d="M180.15,59.74 C194.83,88.53 217.52,133.04 231.25,159.96 " fill="none" id="Controller-backto-RepositoryB" style="stroke:#FF7B72;stroke-width:1.0;stroke-dasharray:7.0,7.0;"/><polygon fill="#FF7B72" points="177.86,55.26,178.3826,65.095,180.1303,59.7149,185.5104,61.4626,177.86,55.26" style="stroke:#FF7B72;stroke-width:1.0;"/><text fill="#FF7B72" font-family="sans-serif" font-size="13" lengthAdjust="spacing" textLength="31" x="203" y="99.4951">inject</text><!--MD5=[2a4d56942032ad6569e7c453f5d57569]
link RepositoryA to DatabaseConnector--><path d="M110.56,212.54 C121.89,228.49 136.1,248.5 147.43,264.44 " fill="none" id="RepositoryA-DatabaseConnector" style="stroke:#FF7B72;stroke-width:1.0;"/><polygon fill="#FF7B72" points="150.54,268.83,148.5991,259.1743,147.6487,264.7507,142.0723,263.8003,150.54,268.83" style="stroke:#FF7B72;stroke-width:1.0;"/><polygon fill="#FF7B72" points="107.49,208.22,109.4534,217.8712,110.3908,212.2925,115.9694,213.2299,107.49,208.22" style="stroke:#FF7B72;stroke-width:1.0;"/><!--MD5=[9de9b27b6ee1f5cde05e12481a62828e]
link RepositoryB to DatabaseConnector--><path d="M223.44,212.54 C212.11,228.49 197.9,248.5 186.57,264.44 " fill="none" id="RepositoryB-DatabaseConnector" style="stroke:#FF7B72;stroke-width:1.0;"/><polygon fill="#FF7B72" points="183.46,268.83,191.9277,263.8003,186.3513,264.7507,185.4009,259.1743,183.46,268.83" style="stroke:#FF7B72;stroke-width:1.0;"/><polygon fill="#FF7B72" points="226.51,208.22,218.0306,213.2299,223.6092,212.2925,224.5466,217.8712,226.51,208.22" style="stroke:#FF7B72;stroke-width:1.0;"/><!--MD5=[7cce91ea8084588f7b4a473e380c23c5]
link DatabaseConnector to SQL--><path d="M167,322.41 C167,338.52 167,358.6 167,374.63 " fill="none" id="DatabaseConnector-SQL" style="stroke:#FF7B72;stroke-width:1.0;"/><polygon fill="#FF7B72" points="167,379.9,171,370.9,167,374.9,163,370.9,167,379.9" style="stroke:#FF7B72;stroke-width:1.0;"/><polygon fill="#FF7B72" points="167,317.01,163,326.01,167,322.01,171,326.01,167,317.01" style="stroke:#FF7B72;stroke-width:1.0;"/><!--MD5=[6a0520bb83a8416efe38e97d2571e3b4]
@startuml repository

skinparam backgroundColor #0D1117

skinparam ArrowColor #ff7b72
skinparam ArrowFontColor #ff7b72
skinparam PackageBorderColor #ff7b72
skinparam PackageFontColor #ff7b72

hide empty members

component Controller

node uow as "Unit of Work" {
    component RepositoryA

    component RepositoryB

    component DatabaseConnector
}


database SQL


Controller <.. RepositoryA : inject
Controller <.. RepositoryB : inject
RepositoryA <- -> DatabaseConnector
RepositoryB <- -> DatabaseConnector
DatabaseConnector <- -> SQL


@enduml

PlantUML version 1.2021.00(Sun Jan 10 05:25:05 EST 2021)
(GPL source distribution)
Java Runtime: OpenJDK Runtime Environment
JVM: OpenJDK 64-Bit Server VM
Default Encoding: Cp1252
Language: en
Country: US
--></g></svg>